{"glyphs":{"0":{"ha":997,"x_min":0,"x_max":0,"o":"m 50 511 b 499 1047 50 829 231 1047 b 947 511 767 1047 947 829 b 499 -18 947 193 781 -18 b 50 511 217 -18 50 193 m 272 511 b 499 179 272 290 356 179 b 725 511 642 179 725 290 b 499 850 725 739 642 850 b 272 511 356 850 272 739 "},"1":{"ha":607,"x_min":0,"x_max":0,"o":"m 47 826 l 47 1028 l 496 1028 l 496 0 l 281 0 l 281 826 "},"2":{"ha":840,"x_min":0,"x_max":0,"o":"m 65 0 l 65 167 l 404 449 b 560 688 514 539 560 603 b 417 847 560 792 508 847 b 265 667 321 847 265 782 l 42 667 b 415 1047 42 897 189 1047 b 790 701 650 1047 790 921 b 578 340 790 561 706 447 l 424 211 l 799 211 l 799 3 "},"3":{"ha":792,"x_min":0,"x_max":0,"o":"m 214 483 l 214 628 b 222 635 217 631 219 632 l 446 831 l 58 831 l 58 1028 l 728 1028 l 728 849 l 511 658 b 763 331 650 617 763 506 b 379 -18 763 114 588 -18 b 11 336 179 -18 11 104 l 233 336 b 385 181 233 235 294 181 b 532 332 472 181 532 240 b 364 483 532 414 485 483 "},"4":{"ha":913,"x_min":0,"x_max":0,"o":"m 751 182 l 751 0 l 539 0 l 539 182 l 28 182 l 28 379 l 471 1028 l 751 1028 l 751 379 l 878 379 l 878 182 m 539 379 l 539 779 l 267 379 "},"5":{"ha":849,"x_min":0,"x_max":0,"o":"m 414 -17 b 46 338 193 -17 46 125 l 268 338 b 419 182 268 240 325 182 b 583 356 521 182 583 247 b 424 524 583 461 525 524 b 267 438 354 524 292 488 l 61 476 l 190 1028 l 749 1028 l 749 819 l 351 819 l 311 669 b 475 710 356 696 413 710 b 814 369 675 710 814 578 b 414 -17 814 139 651 -17 "},"6":{"ha":875,"x_min":0,"x_max":0,"o":"m 414 1028 l 671 1028 l 436 713 b 478 717 450 715 464 717 b 833 360 689 717 833 571 b 440 -18 833 135 668 -18 b 42 361 210 -18 42 146 b 213 751 42 488 88 581 m 272 358 b 440 181 272 253 340 181 b 606 358 538 181 606 253 b 440 535 606 464 539 535 b 272 358 339 535 272 464 "},"7":{"ha":776,"x_min":0,"x_max":0,"o":"m 769 1028 l 769 819 l 415 0 l 182 0 l 543 819 l 7 819 l 7 1028 "},"8":{"ha":915,"x_min":0,"x_max":0,"o":"m 50 297 b 214 556 50 417 114 515 b 88 764 132 596 88 668 b 460 1047 88 932 239 1047 b 828 761 681 1047 828 933 b 697 554 828 665 782 592 b 865 299 800 515 865 418 b 457 -17 865 106 707 -17 b 50 297 207 -17 50 104 m 290 742 b 456 629 290 672 354 629 b 621 742 557 629 621 672 b 456 857 621 813 557 857 b 290 742 354 857 290 813 m 271 313 b 457 181 271 229 340 181 b 643 313 574 181 643 229 b 457 446 643 396 572 446 b 271 313 342 446 271 396 "},"9":{"ha":875,"x_min":0,"x_max":0,"o":"m 461 0 l 204 0 l 439 315 b 397 311 425 313 411 311 b 42 668 186 311 42 457 b 435 1046 42 893 207 1046 b 833 667 665 1046 833 882 b 663 276 833 540 788 447 m 603 669 b 435 847 603 775 535 847 b 269 669 338 847 269 775 b 435 493 269 564 336 493 b 603 669 536 493 603 564 "},"A":{"ha":976,"x_min":0,"x_max":0,"o":"m 13 0 l 379 1028 l 599 1028 l 964 0 l 725 0 l 653 217 l 321 217 l 247 0 m 386 406 l 589 406 l 515 625 b 488 725 504 660 492 700 b 460 625 483 701 472 663 "},"Á":{"ha":976,"x_min":0,"x_max":0,"o":"m 568 1099 l 414 1099 l 531 1329 l 722 1329 m 13 0 l 379 1028 l 599 1028 l 964 0 l 725 0 l 653 217 l 321 217 l 247 0 m 386 406 l 589 406 l 515 625 b 488 725 504 660 492 700 b 460 625 483 701 472 663 "},"Ă":{"ha":976,"x_min":0,"x_max":0,"o":"m 738 1332 b 493 1085 738 1181 642 1085 b 246 1332 340 1085 246 1179 l 397 1332 b 493 1224 397 1263 432 1224 b 588 1332 553 1224 588 1264 m 13 0 l 379 1028 l 599 1028 l 964 0 l 725 0 l 653 217 l 321 217 l 247 0 m 386 406 l 589 406 l 515 625 b 488 725 504 660 492 700 b 460 625 483 701 472 663 "},"Â":{"ha":976,"x_min":0,"x_max":0,"o":"m 251 1099 l 389 1343 l 594 1343 l 732 1099 l 571 1099 l 492 1244 l 413 1099 m 13 0 l 379 1028 l 599 1028 l 964 0 l 725 0 l 653 217 l 321 217 l 247 0 m 386 406 l 589 406 l 515 625 b 488 725 504 660 492 700 b 460 625 483 701 472 663 "},"Ä":{"ha":976,"x_min":0,"x_max":0,"o":"m 354 1108 b 247 1217 294 1108 247 1156 b 354 1324 247 1275 296 1324 b 461 1217 413 1324 461 1274 b 354 1108 461 1157 413 1108 m 629 1108 b 522 1217 569 1108 522 1156 b 629 1324 522 1275 571 1324 b 736 1217 688 1324 736 1274 b 629 1108 736 1157 688 1108 m 13 0 l 379 1028 l 599 1028 l 964 0 l 725 0 l 653 217 l 321 217 l 247 0 m 386 406 l 589 406 l 515 625 b 488 725 504 660 492 700 b 460 625 483 701 472 663 "},"À":{"ha":976,"x_min":0,"x_max":0,"o":"m 414 1099 l 260 1329 l 451 1329 l 568 1099 m 13 0 l 379 1028 l 599 1028 l 964 0 l 725 0 l 653 217 l 321 217 l 247 0 m 386 406 l 589 406 l 515 625 b 488 725 504 660 492 700 b 460 625 483 701 472 663 "},"Ā":{"ha":976,"x_min":0,"x_max":0,"o":"m 290 1279 l 693 1279 l 693 1135 l 290 1135 m 13 0 l 379 1028 l 599 1028 l 964 0 l 725 0 l 653 217 l 321 217 l 247 0 m 386 406 l 589 406 l 515 625 b 488 725 504 660 492 700 b 460 625 483 701 472 663 "},"Ą":{"ha":976,"x_min":0,"x_max":0,"o":"m 13 0 l 379 1028 l 599 1028 l 964 0 l 963 0 b 851 -112 885 -26 851 -74 b 910 -168 851 -143 874 -168 b 953 -158 922 -168 938 -165 l 953 -294 b 871 -310 928 -306 901 -310 b 711 -161 772 -310 711 -242 b 836 0 711 -97 750 -32 l 725 0 l 653 217 l 321 217 l 247 0 m 386 406 l 589 406 l 515 625 b 488 725 504 660 492 700 b 460 625 483 701 472 663 "},"Å":{"ha":976,"x_min":0,"x_max":0,"o":"m 492 1074 b 296 1267 378 1074 296 1154 b 492 1461 296 1376 381 1461 b 688 1267 603 1461 688 1376 b 492 1074 688 1157 604 1074 m 492 1182 b 574 1269 542 1182 574 1217 b 492 1353 574 1318 540 1353 b 410 1269 443 1353 410 1319 b 492 1182 410 1217 442 1182 m 13 0 l 379 1028 l 599 1028 l 964 0 l 725 0 l 653 217 l 321 217 l 247 0 m 386 406 l 589 406 l 515 625 b 488 725 504 660 492 700 b 460 625 483 701 472 663 "},"Ǻ":{"ha":976,"x_min":0,"x_max":0,"o":"m 571 1338 l 417 1338 l 533 1568 l 725 1568 m 13 0 l 358 968 b 296 1114 319 1003 296 1054 b 492 1308 296 1224 381 1308 b 688 1114 603 1308 688 1224 b 621 967 688 1053 663 1001 l 964 0 l 725 0 l 653 217 l 321 217 l 247 0 m 492 1029 b 574 1117 542 1029 574 1064 b 492 1200 574 1165 540 1200 b 410 1117 443 1200 410 1167 b 492 1029 410 1064 442 1029 m 386 406 l 589 406 l 515 625 b 488 725 504 660 492 700 b 460 625 483 701 472 663 "},"Ã":{"ha":976,"x_min":0,"x_max":0,"o":"m 228 1101 b 372 1326 211 1238 271 1326 b 586 1240 474 1326 526 1240 b 636 1326 622 1240 636 1276 l 756 1326 b 610 1101 771 1174 708 1101 b 396 1188 504 1101 449 1188 b 347 1103 360 1188 347 1156 m 13 0 l 379 1028 l 599 1028 l 964 0 l 725 0 l 653 217 l 321 217 l 247 0 m 386 406 l 589 406 l 515 625 b 488 725 504 660 492 700 b 460 625 483 701 472 663 "},"Æ":{"ha":1343,"x_min":0,"x_max":0,"o":"m 421 1028 l 1265 1028 l 1265 819 l 838 819 l 838 618 l 1217 618 l 1217 421 l 838 421 l 838 208 l 1265 208 l 1265 0 l 613 0 l 613 232 l 350 232 l 263 0 l 6 0 m 613 421 l 613 819 l 574 819 l 422 421 "},"Ǽ":{"ha":1343,"x_min":0,"x_max":0,"o":"m 868 1099 l 714 1099 l 831 1329 l 1022 1329 m 421 1028 l 1265 1028 l 1265 819 l 838 819 l 838 618 l 1217 618 l 1217 421 l 838 421 l 838 208 l 1265 208 l 1265 0 l 613 0 l 613 232 l 350 232 l 263 0 l 6 0 m 613 421 l 613 819 l 574 819 l 422 421 "},"B":{"ha":924,"x_min":0,"x_max":0,"o":"m 107 1028 l 535 1028 b 867 743 742 1028 867 919 b 724 513 867 633 817 553 b 879 283 825 479 879 400 b 535 0 879 101 757 0 l 107 0 m 332 831 l 332 607 l 511 607 b 636 721 592 607 636 647 b 511 831 636 793 593 831 m 332 418 l 332 197 l 522 197 b 649 311 606 197 649 235 b 522 418 649 381 604 418 "},"C":{"ha":1079,"x_min":0,"x_max":0,"o":"m 551 -17 b 50 513 243 -17 50 188 b 561 1044 50 833 254 1044 b 1035 667 818 1044 1003 897 l 797 667 b 556 828 767 769 679 828 b 288 514 389 828 288 710 b 556 200 288 321 390 200 b 803 364 682 200 775 263 l 1036 364 b 551 -17 1000 135 808 -17 "},"Ć":{"ha":1079,"x_min":0,"x_max":0,"o":"m 635 1099 l 481 1099 l 597 1329 l 789 1329 m 551 -17 b 50 513 243 -17 50 188 b 561 1044 50 833 254 1044 b 1035 667 818 1044 1003 897 l 797 667 b 556 828 767 769 679 828 b 288 514 389 828 288 710 b 556 200 288 321 390 200 b 803 364 682 200 775 263 l 1036 364 b 551 -17 1000 135 808 -17 "},"Č":{"ha":1079,"x_min":0,"x_max":0,"o":"m 318 1343 l 479 1343 l 558 1197 l 638 1343 l 799 1343 l 661 1099 l 456 1099 m 551 -17 b 50 513 243 -17 50 188 b 561 1044 50 833 254 1044 b 1035 667 818 1044 1003 897 l 797 667 b 556 828 767 769 679 828 b 288 514 389 828 288 710 b 556 200 288 321 390 200 b 803 364 682 200 775 263 l 1036 364 b 551 -17 1000 135 808 -17 "},"Ç":{"ha":1079,"x_min":0,"x_max":0,"o":"m 438 -207 b 539 -233 472 -222 500 -233 b 617 -176 593 -233 617 -210 b 556 -128 617 -146 594 -128 b 488 -139 528 -128 507 -132 l 468 -85 l 501 -15 b 50 513 222 6 50 206 b 561 1044 50 833 254 1044 b 1035 667 818 1044 1003 897 l 797 667 b 556 828 767 769 679 828 b 288 514 389 828 288 710 b 556 200 288 321 390 200 b 803 364 682 200 775 263 l 1036 364 b 582 -15 1001 144 824 -4 l 556 -67 b 606 -58 569 -61 586 -58 b 726 -176 661 -58 726 -90 b 550 -322 726 -271 649 -322 b 438 -296 501 -322 468 -311 "},"Ĉ":{"ha":1079,"x_min":0,"x_max":0,"o":"m 318 1099 l 456 1343 l 661 1343 l 799 1099 l 638 1099 l 558 1244 l 479 1099 m 551 -17 b 50 513 243 -17 50 188 b 561 1044 50 833 254 1044 b 1035 667 818 1044 1003 897 l 797 667 b 556 828 767 769 679 828 b 288 514 389 828 288 710 b 556 200 288 321 390 200 b 803 364 682 200 775 263 l 1036 364 b 551 -17 1000 135 808 -17 "},"Ċ":{"ha":1079,"x_min":0,"x_max":0,"o":"m 557 1108 b 444 1222 494 1108 444 1158 b 557 1336 444 1285 496 1336 b 671 1222 619 1336 671 1283 b 557 1108 671 1160 619 1108 m 551 -17 b 50 513 243 -17 50 188 b 561 1044 50 833 254 1044 b 1035 667 818 1044 1003 897 l 797 667 b 556 828 767 769 679 828 b 288 514 389 828 288 710 b 556 200 288 321 390 200 b 803 364 682 200 775 263 l 1036 364 b 551 -17 1000 135 808 -17 "},"D":{"ha":1057,"x_min":0,"x_max":0,"o":"m 107 0 l 107 1028 l 496 1028 b 1007 511 797 1028 1007 817 b 510 0 1007 211 803 0 m 332 819 l 332 208 l 488 208 b 769 511 665 208 769 321 b 474 819 769 706 660 819 "},"Ð":{"ha":1057,"x_min":0,"x_max":0,"o":"m 14 606 l 107 606 l 107 1028 l 496 1028 b 1007 511 797 1028 1007 817 b 510 0 1007 211 803 0 l 107 0 l 107 424 l 14 424 m 332 424 l 332 208 l 488 208 b 769 511 665 208 769 321 b 474 819 769 706 660 819 l 332 819 l 332 606 l 533 606 l 533 424 "},"Ď":{"ha":1057,"x_min":0,"x_max":0,"o":"m 224 1343 l 385 1343 l 464 1197 l 543 1343 l 704 1343 l 567 1099 l 361 1099 m 107 0 l 107 1028 l 496 1028 b 1007 511 797 1028 1007 817 b 510 0 1007 211 803 0 m 332 819 l 332 208 l 488 208 b 769 511 665 208 769 321 b 474 819 769 706 660 819 "},"Đ":{"ha":1057,"x_min":0,"x_max":0,"o":"m 14 606 l 107 606 l 107 1028 l 496 1028 b 1007 511 797 1028 1007 817 b 510 0 1007 211 803 0 l 107 0 l 107 424 l 14 424 m 332 424 l 332 208 l 488 208 b 769 511 665 208 769 321 b 474 819 769 706 660 819 l 332 819 l 332 606 l 533 606 l 533 424 "},"E":{"ha":838,"x_min":0,"x_max":0,"o":"m 107 0 l 107 1028 l 760 1028 l 760 819 l 332 819 l 332 618 l 711 618 l 711 421 l 332 421 l 332 208 l 760 208 l 760 0 "},"É":{"ha":838,"x_min":0,"x_max":0,"o":"m 510 1099 l 356 1099 l 472 1329 l 664 1329 m 107 0 l 107 1028 l 760 1028 l 760 819 l 332 819 l 332 618 l 711 618 l 711 421 l 332 421 l 332 208 l 760 208 l 760 0 "},"Ĕ":{"ha":838,"x_min":0,"x_max":0,"o":"m 679 1332 b 435 1085 679 1181 583 1085 b 188 1332 282 1085 188 1179 l 339 1332 b 435 1224 339 1263 374 1224 b 529 1332 494 1224 529 1264 m 107 0 l 107 1028 l 760 1028 l 760 819 l 332 819 l 332 618 l 711 618 l 711 421 l 332 421 l 332 208 l 760 208 l 760 0 "},"Ě":{"ha":838,"x_min":0,"x_max":0,"o":"m 193 1343 l 354 1343 l 433 1197 l 513 1343 l 674 1343 l 536 1099 l 331 1099 m 107 0 l 107 1028 l 760 1028 l 760 819 l 332 819 l 332 618 l 711 618 l 711 421 l 332 421 l 332 208 l 760 208 l 760 0 "},"Ê":{"ha":838,"x_min":0,"x_max":0,"o":"m 193 1099 l 331 1343 l 536 1343 l 674 1099 l 513 1099 l 433 1244 l 354 1099 m 107 0 l 107 1028 l 760 1028 l 760 819 l 332 819 l 332 618 l 711 618 l 711 421 l 332 421 l 332 208 l 760 208 l 760 0 "},"Ë":{"ha":838,"x_min":0,"x_max":0,"o":"m 296 1108 b 189 1217 236 1108 189 1156 b 296 1324 189 1275 238 1324 b 403 1217 354 1324 403 1274 b 296 1108 403 1157 354 1108 m 571 1108 b 464 1217 511 1108 464 1156 b 571 1324 464 1275 513 1324 b 678 1217 629 1324 678 1274 b 571 1108 678 1157 629 1108 m 107 0 l 107 1028 l 760 1028 l 760 819 l 332 819 l 332 618 l 711 618 l 711 421 l 332 421 l 332 208 l 760 208 l 760 0 "},"Ė":{"ha":838,"x_min":0,"x_max":0,"o":"m 432 1108 b 319 1222 369 1108 319 1158 b 432 1336 319 1285 371 1336 b 546 1222 494 1336 546 1283 b 432 1108 546 1160 494 1108 m 107 0 l 107 1028 l 760 1028 l 760 819 l 332 819 l 332 618 l 711 618 l 711 421 l 332 421 l 332 208 l 760 208 l 760 0 "},"È":{"ha":838,"x_min":0,"x_max":0,"o":"m 356 1099 l 201 1329 l 393 1329 l 510 1099 m 107 0 l 107 1028 l 760 1028 l 760 819 l 332 819 l 332 618 l 711 618 l 711 421 l 332 421 l 332 208 l 760 208 l 760 0 "},"Ē":{"ha":838,"x_min":0,"x_max":0,"o":"m 232 1279 l 635 1279 l 635 1135 l 232 1135 m 107 0 l 107 1028 l 760 1028 l 760 819 l 332 819 l 332 618 l 711 618 l 711 421 l 332 421 l 332 208 l 760 208 l 760 0 "},"Ę":{"ha":838,"x_min":0,"x_max":0,"o":"m 107 0 l 107 1028 l 760 1028 l 760 819 l 332 819 l 332 618 l 711 618 l 711 421 l 332 421 l 332 208 l 760 208 l 760 0 l 758 0 b 647 -112 681 -26 647 -74 b 706 -168 647 -143 669 -168 b 749 -158 718 -168 733 -165 l 749 -294 b 667 -310 724 -306 697 -310 b 507 -161 568 -310 507 -242 b 632 0 507 -97 546 -32 "},"F":{"ha":808,"x_min":0,"x_max":0,"o":"m 332 401 l 332 0 l 107 0 l 107 1028 l 761 1028 l 761 819 l 332 819 l 332 604 l 693 604 l 693 401 "},"G":{"ha":1113,"x_min":0,"x_max":0,"o":"m 569 833 b 288 504 383 833 288 703 b 568 194 288 297 404 194 b 822 393 738 194 813 286 l 550 393 l 550 590 l 1033 590 l 1033 0 l 840 0 l 828 93 b 539 -15 772 28 661 -15 b 50 511 251 -15 50 196 b 575 1044 50 821 257 1044 b 1033 678 821 1044 1010 900 l 797 678 b 569 833 771 786 676 833 "},"Ğ":{"ha":1113,"x_min":0,"x_max":0,"o":"m 819 1332 b 575 1085 819 1181 724 1085 b 328 1332 422 1085 328 1179 l 479 1332 b 575 1224 479 1263 514 1224 b 669 1332 635 1224 669 1264 m 569 833 b 288 504 383 833 288 703 b 568 194 288 297 404 194 b 822 393 738 194 813 286 l 550 393 l 550 590 l 1033 590 l 1033 0 l 840 0 l 828 93 b 539 -15 772 28 661 -15 b 50 511 251 -15 50 196 b 575 1044 50 821 257 1044 b 1033 678 821 1044 1010 900 l 797 678 b 569 833 771 786 676 833 "},"Ĝ":{"ha":1113,"x_min":0,"x_max":0,"o":"m 333 1099 l 471 1343 l 676 1343 l 814 1099 l 653 1099 l 574 1244 l 494 1099 m 569 833 b 288 504 383 833 288 703 b 568 194 288 297 404 194 b 822 393 738 194 813 286 l 550 393 l 550 590 l 1033 590 l 1033 0 l 840 0 l 828 93 b 539 -15 772 28 661 -15 b 50 511 251 -15 50 196 b 575 1044 50 821 257 1044 b 1033 678 821 1044 1010 900 l 797 678 b 569 833 771 786 676 833 "},"Ģ":{"ha":1113,"x_min":0,"x_max":0,"o":"m 569 833 b 288 504 383 833 288 703 b 568 194 288 297 404 194 b 822 393 738 194 813 286 l 550 393 l 550 590 l 1033 590 l 1033 0 l 840 0 l 828 93 b 539 -15 772 28 661 -15 b 50 511 251 -15 50 196 b 575 1044 50 821 257 1044 b 1033 678 821 1044 1010 900 l 797 678 b 569 833 771 786 676 833 m 640 -169 b 444 -339 640 -274 576 -357 l 444 -274 b 557 -221 518 -283 554 -264 b 518 -231 547 -228 533 -231 b 433 -142 467 -231 433 -192 b 535 -47 433 -85 474 -47 b 640 -169 599 -47 640 -96 "},"Ġ":{"ha":1113,"x_min":0,"x_max":0,"o":"m 572 1108 b 460 1222 510 1108 460 1158 b 572 1336 460 1285 511 1336 b 686 1222 635 1336 686 1283 b 572 1108 686 1160 635 1108 m 569 833 b 288 504 383 833 288 703 b 568 194 288 297 404 194 b 822 393 738 194 813 286 l 550 393 l 550 590 l 1033 590 l 1033 0 l 840 0 l 828 93 b 539 -15 772 28 661 -15 b 50 511 251 -15 50 196 b 575 1044 50 821 257 1044 b 1033 678 821 1044 1010 900 l 797 678 b 569 833 771 786 676 833 "},"H":{"ha":1061,"x_min":0,"x_max":0,"o":"m 107 0 l 107 1028 l 332 1028 l 332 622 l 729 622 l 729 1028 l 954 1028 l 954 0 l 729 0 l 729 414 l 332 414 l 332 0 "},"Ħ":{"ha":1061,"x_min":0,"x_max":0,"o":"m 107 0 l 107 733 l 3 733 l 3 922 l 107 922 l 107 1028 l 332 1028 l 332 922 l 729 922 l 729 1028 l 954 1028 l 954 922 l 1060 922 l 1060 733 l 954 733 l 954 0 l 729 0 l 729 414 l 332 414 l 332 0 m 729 622 l 729 733 l 332 733 l 332 622 "},"I":{"ha":439,"x_min":0,"x_max":0,"o":"m 332 0 l 107 0 l 107 1028 l 332 1028 "},"Í":{"ha":439,"x_min":0,"x_max":0,"o":"m 296 1099 l 142 1099 l 258 1329 l 450 1329 m 332 0 l 107 0 l 107 1028 l 332 1028 "},"Î":{"ha":439,"x_min":0,"x_max":0,"o":"m -21 1099 l 117 1343 l 322 1343 l 460 1099 l 299 1099 l 219 1244 l 140 1099 m 332 0 l 107 0 l 107 1028 l 332 1028 "},"Ï":{"ha":439,"x_min":0,"x_max":0,"o":"m 82 1108 b -25 1217 22 1108 -25 1156 b 82 1324 -25 1275 24 1324 b 189 1217 140 1324 189 1274 b 82 1108 189 1157 140 1108 m 357 1108 b 250 1217 297 1108 250 1156 b 357 1324 250 1275 299 1324 b 464 1217 415 1324 464 1274 b 357 1108 464 1157 415 1108 m 332 0 l 107 0 l 107 1028 l 332 1028 "},"İ":{"ha":439,"x_min":0,"x_max":0,"o":"m 218 1108 b 106 1222 156 1108 106 1158 b 218 1336 106 1285 157 1336 b 332 1222 281 1336 332 1283 b 218 1108 332 1160 281 1108 m 332 0 l 107 0 l 107 1028 l 332 1028 "},"Ì":{"ha":439,"x_min":0,"x_max":0,"o":"m 142 1099 l -12 1329 l 179 1329 l 296 1099 m 332 0 l 107 0 l 107 1028 l 332 1028 "},"Ī":{"ha":439,"x_min":0,"x_max":0,"o":"m 18 1279 l 421 1279 l 421 1135 l 18 1135 m 332 0 l 107 0 l 107 1028 l 332 1028 "},"Į":{"ha":439,"x_min":0,"x_max":0,"o":"m 107 0 l 107 1028 l 332 1028 l 332 0 l 331 0 b 219 -112 253 -26 219 -74 b 278 -168 219 -143 242 -168 b 321 -158 290 -168 306 -165 l 321 -294 b 239 -310 296 -306 269 -310 b 79 -161 140 -310 79 -242 b 204 0 79 -97 118 -32 "},"Ĩ":{"ha":439,"x_min":0,"x_max":0,"o":"m -44 1101 b 100 1326 -61 1238 -1 1326 b 314 1240 201 1326 254 1240 b 364 1326 350 1240 364 1276 l 483 1326 b 338 1101 499 1174 436 1101 b 124 1188 232 1101 176 1188 b 75 1103 88 1188 75 1156 m 332 0 l 107 0 l 107 1028 l 332 1028 "},"J":{"ha":801,"x_min":0,"x_max":0,"o":"m 28 367 l 244 367 l 244 294 b 361 190 244 240 275 190 b 476 303 444 190 476 233 l 476 1028 l 701 1028 l 701 289 b 364 -18 701 113 571 -18 b 28 294 138 -18 28 117 "},"Ĵ":{"ha":801,"x_min":0,"x_max":0,"o":"m 349 1099 l 486 1343 l 692 1343 l 829 1099 l 668 1099 l 589 1244 l 510 1099 m 28 367 l 244 367 l 244 294 b 361 190 244 240 275 190 b 476 303 444 190 476 233 l 476 1028 l 701 1028 l 701 289 b 364 -18 701 113 571 -18 b 28 294 138 -18 28 117 "},"K":{"ha":985,"x_min":0,"x_max":0,"o":"m 332 536 l 703 1028 l 968 1028 l 632 589 l 971 0 l 711 0 l 485 397 l 332 197 l 332 0 l 107 0 l 107 1028 l 332 1028 "},"Ķ":{"ha":985,"x_min":0,"x_max":0,"o":"m 332 536 l 703 1028 l 968 1028 l 632 589 l 971 0 l 711 0 l 485 397 l 332 197 l 332 0 l 107 0 l 107 1028 l 332 1028 m 606 -169 b 410 -339 606 -274 542 -357 l 410 -274 b 522 -221 483 -283 519 -264 b 483 -231 513 -228 499 -231 b 399 -142 432 -231 399 -192 b 500 -47 399 -85 439 -47 b 606 -169 564 -47 606 -96 "},"L":{"ha":772,"x_min":0,"x_max":0,"o":"m 332 208 l 738 208 l 738 0 l 107 0 l 107 1028 l 332 1028 "},"Ĺ":{"ha":772,"x_min":0,"x_max":0,"o":"m 297 1071 l 143 1071 l 260 1301 l 451 1301 m 332 208 l 738 208 l 738 0 l 107 0 l 107 1028 l 332 1028 "},"Ľ":{"ha":772,"x_min":0,"x_max":0,"o":"m 332 208 l 738 208 l 738 0 l 107 0 l 107 1028 l 332 1028 m 397 1028 l 568 1028 l 524 756 l 397 756 "},"Ļ":{"ha":772,"x_min":0,"x_max":0,"o":"m 332 208 l 738 208 l 738 0 l 107 0 l 107 1028 l 332 1028 m 544 -169 b 349 -339 544 -274 481 -357 l 349 -274 b 461 -221 422 -283 458 -264 b 422 -231 451 -228 438 -231 b 338 -142 371 -231 338 -192 b 439 -47 338 -85 378 -47 b 544 -169 503 -47 544 -96 "},"Ŀ":{"ha":772,"x_min":0,"x_max":0,"o":"m 332 208 l 738 208 l 738 0 l 107 0 l 107 1028 l 332 1028 m 538 389 b 421 503 475 389 421 442 b 538 618 421 567 475 618 b 653 503 600 618 653 564 b 538 389 653 442 601 389 "},"Ł":{"ha":772,"x_min":0,"x_max":0,"o":"m 22 500 l 107 540 l 107 1028 l 332 1028 l 332 649 l 490 724 l 490 557 l 332 482 l 332 208 l 738 208 l 738 0 l 107 0 l 107 374 l 22 333 "},"M":{"ha":1265,"x_min":0,"x_max":0,"o":"m 107 0 l 107 1028 l 325 1028 l 631 261 l 938 1028 l 1158 1028 l 1158 0 l 940 0 l 940 215 b 951 563 940 438 940 486 l 733 0 l 528 0 l 311 563 b 325 288 324 486 325 400 l 325 0 "},"N":{"ha":1092,"x_min":0,"x_max":0,"o":"m 107 0 l 107 1028 l 329 1028 l 763 374 l 763 1028 l 985 1028 l 985 0 l 763 0 l 329 653 l 329 0 "},"Ń":{"ha":1092,"x_min":0,"x_max":0,"o":"m 629 1099 l 475 1099 l 592 1329 l 783 1329 m 107 0 l 107 1028 l 329 1028 l 763 374 l 763 1028 l 985 1028 l 985 0 l 763 0 l 329 653 l 329 0 "},"Ň":{"ha":1092,"x_min":0,"x_max":0,"o":"m 313 1343 l 474 1343 l 553 1197 l 632 1343 l 793 1343 l 656 1099 l 450 1099 m 107 0 l 107 1028 l 329 1028 l 763 374 l 763 1028 l 985 1028 l 985 0 l 763 0 l 329 653 l 329 0 "},"Ņ":{"ha":1092,"x_min":0,"x_max":0,"o":"m 107 0 l 107 1028 l 329 1028 l 763 374 l 763 1028 l 985 1028 l 985 0 l 763 0 l 329 653 l 329 0 m 654 -169 b 458 -339 654 -274 590 -357 l 458 -274 b 571 -221 532 -283 568 -264 b 532 -231 561 -228 547 -231 b 447 -142 481 -231 447 -192 b 549 -47 447 -85 488 -47 b 654 -169 613 -47 654 -96 "},"Ŋ":{"ha":1092,"x_min":0,"x_max":0,"o":"m 724 -356 b 588 -337 679 -356 638 -353 l 622 -149 b 689 -158 643 -156 668 -158 b 771 -68 744 -158 771 -129 l 771 -12 l 329 653 l 329 0 l 107 0 l 107 1028 l 329 1028 l 763 374 l 763 1028 l 985 1028 l 985 -96 b 724 -356 985 -251 890 -356 "},"Ñ":{"ha":1092,"x_min":0,"x_max":0,"o":"m 289 1101 b 433 1326 272 1238 332 1326 b 647 1240 535 1326 588 1240 b 697 1326 683 1240 697 1276 l 817 1326 b 671 1101 832 1174 769 1101 b 457 1188 565 1101 510 1188 b 408 1103 421 1188 408 1156 m 107 0 l 107 1028 l 329 1028 l 763 374 l 763 1028 l 985 1028 l 985 0 l 763 0 l 329 653 l 329 0 "},"O":{"ha":1107,"x_min":0,"x_max":0,"o":"m 1057 515 b 551 -17 1057 201 850 -17 b 50 514 254 -17 50 200 b 553 1046 50 828 256 1046 b 1057 515 851 1046 1057 829 m 819 515 b 554 829 819 711 719 829 b 288 515 388 829 288 711 b 554 200 288 318 388 200 b 819 515 719 200 819 321 "},"Ó":{"ha":1107,"x_min":0,"x_max":0,"o":"m 631 1099 l 476 1099 l 593 1329 l 785 1329 m 1057 515 b 551 -17 1057 201 850 -17 b 50 514 254 -17 50 200 b 553 1046 50 828 256 1046 b 1057 515 851 1046 1057 829 m 819 515 b 554 829 819 711 719 829 b 288 515 388 829 288 711 b 554 200 288 318 388 200 b 819 515 719 200 819 321 "},"Ô":{"ha":1107,"x_min":0,"x_max":0,"o":"m 314 1099 l 451 1343 l 657 1343 l 794 1099 l 633 1099 l 554 1244 l 475 1099 m 1057 515 b 551 -17 1057 201 850 -17 b 50 514 254 -17 50 200 b 553 1046 50 828 256 1046 b 1057 515 851 1046 1057 829 m 819 515 b 554 829 819 711 719 829 b 288 515 388 829 288 711 b 554 200 288 318 388 200 b 819 515 719 200 819 321 "},"Ö":{"ha":1107,"x_min":0,"x_max":0,"o":"m 417 1108 b 310 1217 357 1108 310 1156 b 417 1324 310 1275 358 1324 b 524 1217 475 1324 524 1274 b 417 1108 524 1157 475 1108 m 692 1108 b 585 1217 632 1108 585 1156 b 692 1324 585 1275 633 1324 b 799 1217 750 1324 799 1274 b 692 1108 799 1157 750 1108 m 1057 515 b 551 -17 1057 201 850 -17 b 50 514 254 -17 50 200 b 553 1046 50 828 256 1046 b 1057 515 851 1046 1057 829 m 819 515 b 554 829 819 711 719 829 b 288 515 388 829 288 711 b 554 200 288 318 388 200 b 819 515 719 200 819 321 "},"Ò":{"ha":1107,"x_min":0,"x_max":0,"o":"m 476 1099 l 322 1329 l 514 1329 l 631 1099 m 1057 515 b 551 -17 1057 201 850 -17 b 50 514 254 -17 50 200 b 553 1046 50 828 256 1046 b 1057 515 851 1046 1057 829 m 819 515 b 554 829 819 711 719 829 b 288 515 388 829 288 711 b 554 200 288 318 388 200 b 819 515 719 200 819 321 "},"Ő":{"ha":1107,"x_min":0,"x_max":0,"o":"m 513 1099 l 365 1099 l 496 1329 l 667 1329 m 757 1099 l 610 1099 l 740 1329 l 911 1329 m 1057 515 b 551 -17 1057 201 850 -17 b 50 514 254 -17 50 200 b 553 1046 50 828 256 1046 b 1057 515 851 1046 1057 829 m 819 515 b 554 829 819 711 719 829 b 288 515 388 829 288 711 b 554 200 288 318 388 200 b 819 515 719 200 819 321 "},"Ō":{"ha":1107,"x_min":0,"x_max":0,"o":"m 353 1279 l 756 1279 l 756 1135 l 353 1135 m 1057 515 b 551 -17 1057 201 850 -17 b 50 514 254 -17 50 200 b 553 1046 50 828 256 1046 b 1057 515 851 1046 1057 829 m 819 515 b 554 829 819 711 719 829 b 288 515 388 829 288 711 b 554 200 288 318 388 200 b 819 515 719 200 819 321 "},"Ø":{"ha":1107,"x_min":0,"x_max":0,"o":"m 1057 515 b 551 -17 1057 201 850 -17 b 307 42 460 -17 378 4 l 278 1 l 65 1 l 175 147 b 50 514 96 239 50 365 b 553 1046 50 828 256 1046 b 806 983 647 1046 733 1024 l 840 1029 l 1043 1029 l 932 881 b 1057 515 1011 789 1057 663 m 288 515 b 322 342 288 447 300 389 l 671 806 b 554 829 638 821 599 829 b 288 515 388 829 288 711 m 819 515 b 786 685 819 581 808 639 l 442 222 b 554 200 475 207 513 200 b 819 515 719 200 819 321 "},"Ǿ":{"ha":1107,"x_min":0,"x_max":0,"o":"m 614 1078 l 460 1078 l 576 1308 l 768 1308 m 1057 515 b 551 -17 1057 201 850 -17 b 307 42 460 -17 378 4 l 278 1 l 65 1 l 175 147 b 50 514 96 239 50 365 b 553 1046 50 828 256 1046 b 806 983 647 1046 733 1024 l 840 1029 l 1043 1029 l 932 881 b 1057 515 1011 789 1057 663 m 288 515 b 322 342 288 447 300 389 l 671 806 b 554 829 638 821 599 829 b 288 515 388 829 288 711 m 819 515 b 786 685 819 581 808 639 l 442 222 b 554 200 475 207 513 200 b 819 515 719 200 819 321 "},"Õ":{"ha":1107,"x_min":0,"x_max":0,"o":"m 290 1101 b 435 1326 274 1238 333 1326 b 649 1240 536 1326 589 1240 b 699 1326 685 1240 699 1276 l 818 1326 b 672 1101 833 1174 771 1101 b 458 1188 567 1101 511 1188 b 410 1103 422 1188 410 1156 m 1057 515 b 551 -17 1057 201 850 -17 b 50 514 254 -17 50 200 b 553 1046 50 828 256 1046 b 1057 515 851 1046 1057 829 m 819 515 b 554 829 819 711 719 829 b 288 515 388 829 288 711 b 554 200 288 318 388 200 b 819 515 719 200 819 321 "},"Œ":{"ha":1554,"x_min":0,"x_max":0,"o":"m 50 514 b 554 1046 50 822 247 1046 b 824 960 653 1046 757 1015 l 824 1028 l 1476 1028 l 1476 819 l 1049 819 l 1049 618 l 1428 618 l 1428 421 l 1049 421 l 1049 208 l 1476 208 l 1476 0 l 824 0 l 824 78 b 542 -17 772 26 661 -17 b 50 514 240 -17 50 206 m 288 515 b 554 200 288 313 404 200 b 819 515 704 200 819 313 b 554 829 819 718 704 829 b 288 515 404 829 288 718 "},"P":{"ha":908,"x_min":0,"x_max":0,"o":"m 332 342 l 332 0 l 107 0 l 107 1028 l 524 1028 b 874 685 733 1028 874 890 b 524 342 874 479 733 342 m 332 828 l 332 542 l 474 542 b 636 685 582 542 636 589 b 474 828 636 781 582 828 "},"Þ":{"ha":908,"x_min":0,"x_max":0,"o":"m 332 186 l 332 0 l 107 0 l 107 1028 l 332 1028 l 332 844 l 524 844 b 874 515 733 844 874 707 b 524 186 874 324 733 186 m 332 644 l 332 386 l 474 386 b 636 515 582 386 636 433 b 474 644 636 597 582 644 "},"Q":{"ha":1107,"x_min":0,"x_max":0,"o":"m 797 42 b 551 -17 726 4 643 -17 b 50 514 254 -17 50 200 b 553 1046 50 828 256 1046 b 1057 515 851 1046 1057 829 b 943 163 1057 375 1015 253 l 1054 36 l 913 -89 m 819 515 b 554 829 819 711 719 829 b 288 515 388 829 288 711 b 554 200 288 318 388 200 b 644 214 588 200 617 204 l 510 367 l 651 492 l 785 342 b 819 515 807 389 819 447 "},"R":{"ha":956,"x_min":0,"x_max":0,"o":"m 107 0 l 107 1028 l 504 1028 b 896 694 754 1028 896 907 b 725 408 896 561 839 467 l 906 0 l 660 0 l 506 360 l 332 360 l 332 0 m 332 557 l 503 557 b 658 694 601 557 658 607 b 504 828 658 781 604 828 l 332 828 "},"Ŕ":{"ha":956,"x_min":0,"x_max":0,"o":"m 517 1099 l 363 1099 l 479 1329 l 671 1329 m 107 0 l 107 1028 l 504 1028 b 896 694 754 1028 896 907 b 725 408 896 561 839 467 l 906 0 l 660 0 l 506 360 l 332 360 l 332 0 m 332 557 l 503 557 b 658 694 601 557 658 607 b 504 828 658 781 604 828 l 332 828 "},"Ř":{"ha":956,"x_min":0,"x_max":0,"o":"m 200 1343 l 361 1343 l 440 1197 l 519 1343 l 681 1343 l 543 1099 l 338 1099 m 107 0 l 107 1028 l 504 1028 b 896 694 754 1028 896 907 b 725 408 896 561 839 467 l 906 0 l 660 0 l 506 360 l 332 360 l 332 0 m 332 557 l 503 557 b 658 694 601 557 658 607 b 504 828 658 781 604 828 l 332 828 "},"Ŗ":{"ha":956,"x_min":0,"x_max":0,"o":"m 107 0 l 107 1028 l 504 1028 b 896 694 754 1028 896 907 b 725 408 896 561 839 467 l 906 0 l 660 0 l 506 360 l 332 360 l 332 0 m 332 557 l 503 557 b 658 694 601 557 658 607 b 504 828 658 781 604 828 l 332 828 m 597 -169 b 401 -339 597 -274 533 -357 l 401 -274 b 514 -221 475 -283 511 -264 b 475 -231 504 -228 490 -231 b 390 -142 424 -231 390 -192 b 492 -47 390 -85 431 -47 b 597 -169 556 -47 597 -96 "},"S":{"ha":846,"x_min":0,"x_max":0,"o":"m 50 729 b 428 1047 50 915 207 1047 b 788 731 649 1047 788 925 l 564 731 b 425 847 564 803 510 847 b 275 738 333 847 275 806 b 379 629 275 675 307 644 l 533 597 b 804 310 717 560 804 472 b 413 -18 804 111 649 -18 b 35 299 183 -18 35 106 l 258 299 b 414 182 258 224 314 182 b 579 288 515 182 579 222 b 485 388 579 344 553 374 l 328 419 b 50 729 144 457 50 561 "},"Ś":{"ha":846,"x_min":0,"x_max":0,"o":"m 496 1099 l 342 1099 l 458 1329 l 650 1329 m 50 729 b 428 1047 50 915 207 1047 b 788 731 649 1047 788 925 l 564 731 b 425 847 564 803 510 847 b 275 738 333 847 275 806 b 379 629 275 675 307 644 l 533 597 b 804 310 717 560 804 472 b 413 -18 804 111 649 -18 b 35 299 183 -18 35 106 l 258 299 b 414 182 258 224 314 182 b 579 288 515 182 579 222 b 485 388 579 344 553 374 l 328 419 b 50 729 144 457 50 561 "},"Š":{"ha":846,"x_min":0,"x_max":0,"o":"m 179 1343 l 340 1343 l 419 1197 l 499 1343 l 660 1343 l 522 1099 l 317 1099 m 50 729 b 428 1047 50 915 207 1047 b 788 731 649 1047 788 925 l 564 731 b 425 847 564 803 510 847 b 275 738 333 847 275 806 b 379 629 275 675 307 644 l 533 597 b 804 310 717 560 804 472 b 413 -18 804 111 649 -18 b 35 299 183 -18 35 106 l 258 299 b 414 182 258 224 314 182 b 579 288 515 182 579 222 b 485 388 579 344 553 374 l 328 419 b 50 729 144 457 50 561 "},"Ş":{"ha":846,"x_min":0,"x_max":0,"o":"m 304 -207 b 406 -233 339 -222 367 -233 b 483 -176 460 -233 483 -210 b 422 -128 483 -146 461 -128 b 354 -139 394 -128 374 -132 l 335 -85 l 368 -17 b 35 299 164 -1 35 118 l 258 299 b 414 182 258 224 314 182 b 579 288 515 182 579 222 b 485 388 579 344 553 374 l 328 419 b 50 729 144 457 50 561 b 428 1047 50 915 207 1047 b 788 731 649 1047 788 925 l 564 731 b 425 847 564 803 510 847 b 275 738 333 847 275 806 b 379 629 275 675 307 644 l 533 597 b 804 310 717 560 804 472 b 449 -17 804 121 664 -4 l 422 -67 b 472 -58 436 -61 453 -58 b 593 -176 528 -58 593 -90 b 417 -322 593 -271 515 -322 b 304 -296 368 -322 335 -311 "},"Ŝ":{"ha":846,"x_min":0,"x_max":0,"o":"m 179 1099 l 317 1343 l 522 1343 l 660 1099 l 499 1099 l 419 1244 l 340 1099 m 50 729 b 428 1047 50 915 207 1047 b 788 731 649 1047 788 925 l 564 731 b 425 847 564 803 510 847 b 275 738 333 847 275 806 b 379 629 275 675 307 644 l 533 597 b 804 310 717 560 804 472 b 413 -18 804 111 649 -18 b 35 299 183 -18 35 106 l 258 299 b 414 182 258 224 314 182 b 579 288 515 182 579 222 b 485 388 579 344 553 374 l 328 419 b 50 729 144 457 50 561 "},"Ș":{"ha":846,"x_min":0,"x_max":0,"o":"m 50 729 b 428 1047 50 915 207 1047 b 788 731 649 1047 788 925 l 564 731 b 425 847 564 803 510 847 b 275 738 333 847 275 806 b 379 629 275 675 307 644 l 533 597 b 804 310 717 560 804 472 b 413 -18 804 111 649 -18 b 35 299 183 -18 35 106 l 258 299 b 414 182 258 224 314 182 b 579 288 515 182 579 222 b 485 388 579 344 553 374 l 328 419 b 50 729 144 457 50 561 m 519 -169 b 324 -339 519 -274 456 -357 l 324 -274 b 436 -221 397 -283 433 -264 b 397 -231 426 -228 413 -231 b 313 -142 346 -231 313 -192 b 414 -47 313 -85 353 -47 b 519 -169 478 -47 519 -96 "},"T":{"ha":864,"x_min":0,"x_max":0,"o":"m 28 1028 l 836 1028 l 836 819 l 544 819 l 544 0 l 319 0 l 319 819 l 28 819 "},"Ŧ":{"ha":864,"x_min":0,"x_max":0,"o":"m 172 592 l 319 592 l 319 819 l 28 819 l 28 1028 l 836 1028 l 836 819 l 544 819 l 544 592 l 692 592 l 692 410 l 544 410 l 544 0 l 319 0 l 319 410 l 172 410 "},"Ť":{"ha":864,"x_min":0,"x_max":0,"o":"m 192 1343 l 353 1343 l 432 1197 l 511 1343 l 672 1343 l 535 1099 l 329 1099 m 28 1028 l 836 1028 l 836 819 l 544 819 l 544 0 l 319 0 l 319 819 l 28 819 "},"Ţ":{"ha":864,"x_min":0,"x_max":0,"o":"m 318 -207 b 419 -233 353 -222 381 -233 b 497 -176 474 -233 497 -210 b 436 -128 497 -146 475 -128 b 368 -139 408 -128 388 -132 l 349 -85 l 389 0 l 319 0 l 319 819 l 28 819 l 28 1028 l 836 1028 l 836 819 l 544 819 l 544 0 l 471 0 l 436 -67 b 486 -58 450 -61 467 -58 b 607 -176 542 -58 607 -90 b 431 -322 607 -271 529 -322 b 318 -296 382 -322 349 -311 "},"Ț":{"ha":864,"x_min":0,"x_max":0,"o":"m 28 1028 l 836 1028 l 836 819 l 544 819 l 544 0 l 319 0 l 319 819 l 28 819 m 533 -169 b 338 -339 533 -274 469 -357 l 338 -274 b 450 -221 411 -283 447 -264 b 411 -231 440 -228 426 -231 b 326 -142 360 -231 326 -192 b 428 -47 326 -85 367 -47 b 533 -169 492 -47 533 -96 "},"U":{"ha":1047,"x_min":0,"x_max":0,"o":"m 100 1028 l 325 1028 l 325 401 b 522 201 325 272 396 201 b 722 401 650 201 722 275 l 722 1028 l 947 1028 l 947 386 b 522 -17 947 142 781 -17 b 100 386 265 -17 100 140 "},"Ú":{"ha":1047,"x_min":0,"x_max":0,"o":"m 600 1099 l 446 1099 l 563 1329 l 754 1329 m 100 1028 l 325 1028 l 325 401 b 522 201 325 272 396 201 b 722 401 650 201 722 275 l 722 1028 l 947 1028 l 947 386 b 522 -17 947 142 781 -17 b 100 386 265 -17 100 140 "},"Û":{"ha":1047,"x_min":0,"x_max":0,"o":"m 283 1099 l 421 1343 l 626 1343 l 764 1099 l 603 1099 l 524 1244 l 444 1099 m 100 1028 l 325 1028 l 325 401 b 522 201 325 272 396 201 b 722 401 650 201 722 275 l 722 1028 l 947 1028 l 947 386 b 522 -17 947 142 781 -17 b 100 386 265 -17 100 140 "},"Ü":{"ha":1047,"x_min":0,"x_max":0,"o":"m 386 1108 b 279 1217 326 1108 279 1156 b 386 1324 279 1275 328 1324 b 493 1217 444 1324 493 1274 b 386 1108 493 1157 444 1108 m 661 1108 b 554 1217 601 1108 554 1156 b 661 1324 554 1275 603 1324 b 768 1217 719 1324 768 1274 b 661 1108 768 1157 719 1108 m 100 1028 l 325 1028 l 325 401 b 522 201 325 272 396 201 b 722 401 650 201 722 275 l 722 1028 l 947 1028 l 947 386 b 522 -17 947 142 781 -17 b 100 386 265 -17 100 140 "},"Ù":{"ha":1047,"x_min":0,"x_max":0,"o":"m 446 1099 l 292 1329 l 483 1329 l 600 1099 m 100 1028 l 325 1028 l 325 401 b 522 201 325 272 396 201 b 722 401 650 201 722 275 l 722 1028 l 947 1028 l 947 386 b 522 -17 947 142 781 -17 b 100 386 265 -17 100 140 "},"Ű":{"ha":1047,"x_min":0,"x_max":0,"o":"m 482 1099 l 335 1099 l 465 1329 l 636 1329 m 726 1099 l 579 1099 l 710 1329 l 881 1329 m 100 1028 l 325 1028 l 325 401 b 522 201 325 272 396 201 b 722 401 650 201 722 275 l 722 1028 l 947 1028 l 947 386 b 522 -17 947 142 781 -17 b 100 386 265 -17 100 140 "},"Ū":{"ha":1047,"x_min":0,"x_max":0,"o":"m 322 1279 l 725 1279 l 725 1135 l 322 1135 m 100 1028 l 325 1028 l 325 401 b 522 201 325 272 396 201 b 722 401 650 201 722 275 l 722 1028 l 947 1028 l 947 386 b 522 -17 947 142 781 -17 b 100 386 265 -17 100 140 "},"Ų":{"ha":1047,"x_min":0,"x_max":0,"o":"m 100 1028 l 325 1028 l 325 401 b 522 201 325 272 396 201 b 722 401 650 201 722 275 l 722 1028 l 947 1028 l 947 386 b 657 0 947 188 838 46 b 547 -112 581 -28 547 -74 b 606 -168 547 -143 569 -168 b 649 -158 618 -168 633 -165 l 649 -294 b 567 -310 624 -306 597 -310 b 407 -161 468 -310 407 -242 b 497 -17 407 -107 435 -51 b 100 386 254 -6 100 149 "},"Ů":{"ha":1047,"x_min":0,"x_max":0,"o":"m 524 1074 b 328 1267 410 1074 328 1154 b 524 1461 328 1376 413 1461 b 719 1267 635 1461 719 1376 b 524 1074 719 1157 636 1074 m 524 1182 b 606 1269 574 1182 606 1217 b 524 1353 606 1318 572 1353 b 442 1269 475 1353 442 1319 b 524 1182 442 1217 474 1182 m 100 1028 l 325 1028 l 325 401 b 522 201 325 272 396 201 b 722 401 650 201 722 275 l 722 1028 l 947 1028 l 947 386 b 522 -17 947 142 781 -17 b 100 386 265 -17 100 140 "},"Ũ":{"ha":1047,"x_min":0,"x_max":0,"o":"m 260 1101 b 404 1326 243 1238 303 1326 b 618 1240 506 1326 558 1240 b 668 1326 654 1240 668 1276 l 788 1326 b 642 1101 803 1174 740 1101 b 428 1188 536 1101 481 1188 b 379 1103 392 1188 379 1156 m 100 1028 l 325 1028 l 325 401 b 522 201 325 272 396 201 b 722 401 650 201 722 275 l 722 1028 l 947 1028 l 947 386 b 522 -17 947 142 781 -17 b 100 386 265 -17 100 140 "},"V":{"ha":1022,"x_min":0,"x_max":0,"o":"m 14 1028 l 254 1028 l 449 508 b 514 292 472 444 492 381 b 582 508 540 390 560 447 l 774 1028 l 1008 1028 l 631 0 l 399 0 "},"W":{"ha":1485,"x_min":0,"x_max":0,"o":"m 21 1028 l 256 1028 l 390 582 b 442 358 408 521 425 460 b 493 582 458 460 475 518 l 619 1028 l 871 1028 l 992 582 b 1043 358 1008 519 1025 457 b 1097 579 1064 463 1079 519 l 1235 1028 l 1464 1028 l 1150 0 l 931 0 l 743 675 l 550 0 l 329 0 "},"Ẃ":{"ha":1485,"x_min":0,"x_max":0,"o":"m 819 1099 l 665 1099 l 782 1329 l 974 1329 m 21 1028 l 256 1028 l 390 582 b 442 358 408 521 425 460 b 493 582 458 460 475 518 l 619 1028 l 871 1028 l 992 582 b 1043 358 1008 519 1025 457 b 1097 579 1064 463 1079 519 l 1235 1028 l 1464 1028 l 1150 0 l 931 0 l 743 675 l 550 0 l 329 0 "},"Ŵ":{"ha":1485,"x_min":0,"x_max":0,"o":"m 503 1099 l 640 1343 l 846 1343 l 983 1099 l 822 1099 l 743 1244 l 664 1099 m 21 1028 l 256 1028 l 390 582 b 442 358 408 521 425 460 b 493 582 458 460 475 518 l 619 1028 l 871 1028 l 992 582 b 1043 358 1008 519 1025 457 b 1097 579 1064 463 1079 519 l 1235 1028 l 1464 1028 l 1150 0 l 931 0 l 743 675 l 550 0 l 329 0 "},"Ẅ":{"ha":1485,"x_min":0,"x_max":0,"o":"m 606 1108 b 499 1217 546 1108 499 1156 b 606 1324 499 1275 547 1324 b 713 1217 664 1324 713 1274 b 606 1108 713 1157 664 1108 m 881 1108 b 774 1217 821 1108 774 1156 b 881 1324 774 1275 822 1324 b 988 1217 939 1324 988 1274 b 881 1108 988 1157 939 1108 m 21 1028 l 256 1028 l 390 582 b 442 358 408 521 425 460 b 493 582 458 460 475 518 l 619 1028 l 871 1028 l 992 582 b 1043 358 1008 519 1025 457 b 1097 579 1064 463 1079 519 l 1235 1028 l 1464 1028 l 1150 0 l 931 0 l 743 675 l 550 0 l 329 0 "},"Ẁ":{"ha":1485,"x_min":0,"x_max":0,"o":"m 665 1099 l 511 1329 l 703 1329 l 819 1099 m 21 1028 l 256 1028 l 390 582 b 442 358 408 521 425 460 b 493 582 458 460 475 518 l 619 1028 l 871 1028 l 992 582 b 1043 358 1008 519 1025 457 b 1097 579 1064 463 1079 519 l 1235 1028 l 1464 1028 l 1150 0 l 931 0 l 743 675 l 550 0 l 329 0 "},"X":{"ha":1004,"x_min":0,"x_max":0,"o":"m 38 1028 l 306 1028 l 392 893 b 511 688 429 835 465 772 l 717 1028 l 979 1028 l 654 514 l 979 0 l 713 0 l 644 107 b 510 342 593 189 560 250 l 289 0 l 25 0 l 368 514 "},"Y":{"ha":947,"x_min":0,"x_max":0,"o":"m 14 1028 l 265 1028 l 438 694 b 476 611 454 663 465 638 b 517 696 489 636 500 663 l 689 1028 l 933 1028 l 586 390 l 586 0 l 361 0 l 361 390 "},"Ý":{"ha":947,"x_min":0,"x_max":0,"o":"m 553 1099 l 399 1099 l 515 1329 l 707 1329 m 14 1028 l 265 1028 l 438 694 b 476 611 454 663 465 638 b 517 696 489 636 500 663 l 689 1028 l 933 1028 l 586 390 l 586 0 l 361 0 l 361 390 "},"Ŷ":{"ha":947,"x_min":0,"x_max":0,"o":"m 236 1099 l 374 1343 l 579 1343 l 717 1099 l 556 1099 l 476 1244 l 397 1099 m 14 1028 l 265 1028 l 438 694 b 476 611 454 663 465 638 b 517 696 489 636 500 663 l 689 1028 l 933 1028 l 586 390 l 586 0 l 361 0 l 361 390 "},"Ÿ":{"ha":947,"x_min":0,"x_max":0,"o":"m 339 1108 b 232 1217 279 1108 232 1156 b 339 1324 232 1275 281 1324 b 446 1217 397 1324 446 1274 b 339 1108 446 1157 397 1108 m 614 1108 b 507 1217 554 1108 507 1156 b 614 1324 507 1275 556 1324 b 721 1217 672 1324 721 1274 b 614 1108 721 1157 672 1108 m 14 1028 l 265 1028 l 438 694 b 476 611 454 663 465 638 b 517 696 489 636 500 663 l 689 1028 l 933 1028 l 586 390 l 586 0 l 361 0 l 361 390 "},"Ỳ":{"ha":947,"x_min":0,"x_max":0,"o":"m 399 1099 l 244 1329 l 436 1329 l 553 1099 m 14 1028 l 265 1028 l 438 694 b 476 611 454 663 465 638 b 517 696 489 636 500 663 l 689 1028 l 933 1028 l 586 390 l 586 0 l 361 0 l 361 390 "},"Z":{"ha":824,"x_min":0,"x_max":0,"o":"m 35 0 l 35 211 l 493 819 l 49 819 l 49 1028 l 775 1028 l 775 826 l 310 208 l 789 208 l 789 0 "},"Ź":{"ha":824,"x_min":0,"x_max":0,"o":"m 475 1099 l 321 1099 l 438 1329 l 629 1329 m 35 0 l 35 211 l 493 819 l 49 819 l 49 1028 l 775 1028 l 775 826 l 310 208 l 789 208 l 789 0 "},"Ž":{"ha":824,"x_min":0,"x_max":0,"o":"m 158 1343 l 319 1343 l 399 1197 l 478 1343 l 639 1343 l 501 1099 l 296 1099 m 35 0 l 35 211 l 493 819 l 49 819 l 49 1028 l 775 1028 l 775 826 l 310 208 l 789 208 l 789 0 "},"Ż":{"ha":824,"x_min":0,"x_max":0,"o":"m 397 1108 b 285 1222 335 1108 285 1158 b 397 1336 285 1285 336 1336 b 511 1222 460 1336 511 1283 b 397 1108 511 1160 460 1108 m 35 0 l 35 211 l 493 819 l 49 819 l 49 1028 l 775 1028 l 775 826 l 310 208 l 789 208 l 789 0 "},"a":{"ha":783,"x_min":0,"x_max":0,"o":"m 290 -18 b 51 204 143 -18 51 68 b 308 424 51 332 142 411 l 503 439 l 503 450 b 385 554 503 518 461 554 b 246 457 294 554 246 519 l 68 457 b 396 717 68 614 197 717 b 711 406 597 717 711 604 l 711 0 l 522 0 l 508 92 b 290 -18 486 28 394 -18 m 365 140 b 504 260 447 140 504 181 l 504 297 l 396 288 b 269 214 303 279 269 258 b 365 140 269 164 300 140 "},"á":{"ha":783,"x_min":0,"x_max":0,"o":"m 481 779 l 326 779 l 443 1010 l 635 1010 m 290 -18 b 51 204 143 -18 51 68 b 308 424 51 332 142 411 l 503 439 l 503 450 b 385 554 503 518 461 554 b 246 457 294 554 246 519 l 68 457 b 396 717 68 614 197 717 b 711 406 597 717 711 604 l 711 0 l 522 0 l 508 92 b 290 -18 486 28 394 -18 m 365 140 b 504 260 447 140 504 181 l 504 297 l 396 288 b 269 214 303 279 269 258 b 365 140 269 164 300 140 "},"ă":{"ha":783,"x_min":0,"x_max":0,"o":"m 650 1013 b 406 765 650 861 554 765 b 158 1013 253 765 158 860 l 310 1013 b 406 904 310 943 344 904 b 500 1013 465 904 500 944 m 290 -18 b 51 204 143 -18 51 68 b 308 424 51 332 142 411 l 503 439 l 503 450 b 385 554 503 518 461 554 b 246 457 294 554 246 519 l 68 457 b 396 717 68 614 197 717 b 711 406 597 717 711 604 l 711 0 l 522 0 l 508 92 b 290 -18 486 28 394 -18 m 365 140 b 504 260 447 140 504 181 l 504 297 l 396 288 b 269 214 303 279 269 258 b 365 140 269 164 300 140 "},"â":{"ha":783,"x_min":0,"x_max":0,"o":"m 164 779 l 301 1024 l 507 1024 l 644 779 l 483 779 l 404 925 l 325 779 m 290 -18 b 51 204 143 -18 51 68 b 308 424 51 332 142 411 l 503 439 l 503 450 b 385 554 503 518 461 554 b 246 457 294 554 246 519 l 68 457 b 396 717 68 614 197 717 b 711 406 597 717 711 604 l 711 0 l 522 0 l 508 92 b 290 -18 486 28 394 -18 m 365 140 b 504 260 447 140 504 181 l 504 297 l 396 288 b 269 214 303 279 269 258 b 365 140 269 164 300 140 "},"ä":{"ha":783,"x_min":0,"x_max":0,"o":"m 267 789 b 160 897 207 789 160 836 b 267 1004 160 956 208 1004 b 374 897 325 1004 374 954 b 267 789 374 838 325 789 m 542 789 b 435 897 482 789 435 836 b 542 1004 435 956 483 1004 b 649 897 600 1004 649 954 b 542 789 649 838 600 789 m 290 -18 b 51 204 143 -18 51 68 b 308 424 51 332 142 411 l 503 439 l 503 450 b 385 554 503 518 461 554 b 246 457 294 554 246 519 l 68 457 b 396 717 68 614 197 717 b 711 406 597 717 711 604 l 711 0 l 522 0 l 508 92 b 290 -18 486 28 394 -18 m 365 140 b 504 260 447 140 504 181 l 504 297 l 396 288 b 269 214 303 279 269 258 b 365 140 269 164 300 140 "},"à":{"ha":783,"x_min":0,"x_max":0,"o":"m 326 779 l 172 1010 l 364 1010 l 481 779 m 290 -18 b 51 204 143 -18 51 68 b 308 424 51 332 142 411 l 503 439 l 503 450 b 385 554 503 518 461 554 b 246 457 294 554 246 519 l 68 457 b 396 717 68 614 197 717 b 711 406 597 717 711 604 l 711 0 l 522 0 l 508 92 b 290 -18 486 28 394 -18 m 365 140 b 504 260 447 140 504 181 l 504 297 l 396 288 b 269 214 303 279 269 258 b 365 140 269 164 300 140 "},"ā":{"ha":783,"x_min":0,"x_max":0,"o":"m 203 960 l 606 960 l 606 815 l 203 815 m 290 -18 b 51 204 143 -18 51 68 b 308 424 51 332 142 411 l 503 439 l 503 450 b 385 554 503 518 461 554 b 246 457 294 554 246 519 l 68 457 b 396 717 68 614 197 717 b 711 406 597 717 711 604 l 711 0 l 522 0 l 508 92 b 290 -18 486 28 394 -18 m 365 140 b 504 260 447 140 504 181 l 504 297 l 396 288 b 269 214 303 279 269 258 b 365 140 269 164 300 140 "},"ą":{"ha":783,"x_min":0,"x_max":0,"o":"m 290 -18 b 51 204 143 -18 51 68 b 308 424 51 332 142 411 l 503 439 l 503 450 b 385 554 503 518 461 554 b 246 457 294 554 246 519 l 68 457 b 396 717 68 614 197 717 b 711 406 597 717 711 604 l 711 0 l 710 0 b 599 -112 632 -26 599 -74 b 657 -168 599 -143 621 -168 b 700 -158 669 -168 685 -165 l 700 -294 b 618 -310 675 -306 649 -310 b 458 -161 519 -310 458 -242 b 583 0 458 -97 497 -32 l 522 0 l 508 92 b 290 -18 486 28 394 -18 m 365 140 b 504 260 447 140 504 181 l 504 297 l 396 288 b 269 214 303 279 269 258 b 365 140 269 164 300 140 "},"å":{"ha":783,"x_min":0,"x_max":0,"o":"m 404 754 b 208 947 290 754 208 835 b 404 1142 208 1057 293 1142 b 600 947 515 1142 600 1057 b 404 754 600 838 517 754 m 404 863 b 486 950 454 863 486 897 b 404 1033 486 999 453 1033 b 322 950 356 1033 322 1000 b 404 863 322 897 354 863 m 290 -18 b 51 204 143 -18 51 68 b 308 424 51 332 142 411 l 503 439 l 503 450 b 385 554 503 518 461 554 b 246 457 294 554 246 519 l 68 457 b 396 717 68 614 197 717 b 711 406 597 717 711 604 l 711 0 l 522 0 l 508 92 b 290 -18 486 28 394 -18 m 365 140 b 504 260 447 140 504 181 l 504 297 l 396 288 b 269 214 303 279 269 258 b 365 140 269 164 300 140 "},"ǻ":{"ha":783,"x_min":0,"x_max":0,"o":"m 475 1019 l 333 1019 l 440 1218 l 617 1218 m 290 -18 b 51 204 143 -18 51 68 b 308 424 51 332 142 411 l 503 439 l 503 450 b 385 554 503 518 461 554 b 246 457 294 554 246 519 l 68 457 b 236 690 68 567 131 650 b 204 801 215 721 204 758 b 400 996 204 911 289 996 b 596 801 511 996 596 911 b 558 685 596 757 582 717 b 711 406 657 638 711 542 l 711 0 l 522 0 l 508 92 b 290 -18 486 28 394 -18 m 400 717 b 482 804 450 717 482 751 b 400 888 482 853 449 888 b 318 804 351 888 318 854 b 400 717 318 751 350 717 m 365 140 b 504 260 447 140 504 181 l 504 297 l 396 288 b 269 214 303 279 269 258 b 365 140 269 164 300 140 "},"ã":{"ha":783,"x_min":0,"x_max":0,"o":"m 140 782 b 285 1007 124 918 183 1007 b 499 921 386 1007 439 921 b 549 1007 535 921 549 957 l 668 1007 b 522 782 683 854 621 782 b 308 868 417 782 361 868 b 260 783 272 868 260 836 m 290 -18 b 51 204 143 -18 51 68 b 308 424 51 332 142 411 l 503 439 l 503 450 b 385 554 503 518 461 554 b 246 457 294 554 246 519 l 68 457 b 396 717 68 614 197 717 b 711 406 597 717 711 604 l 711 0 l 522 0 l 508 92 b 290 -18 486 28 394 -18 m 365 140 b 504 260 447 140 504 181 l 504 297 l 396 288 b 269 214 303 279 269 258 b 365 140 269 164 300 140 "},"æ":{"ha":1246,"x_min":0,"x_max":0,"o":"m 51 204 b 308 419 51 340 154 417 l 503 424 l 503 450 b 378 554 503 521 458 554 b 246 457 292 554 246 517 l 68 457 b 382 717 68 613 194 717 b 618 636 500 717 572 688 b 846 717 676 688 754 717 b 1200 347 1071 717 1200 567 l 1200 293 l 694 290 b 854 156 708 208 757 156 b 1007 235 940 156 993 189 l 1203 235 b 850 -18 1178 83 1043 -18 b 575 114 732 -18 636 31 b 306 -18 522 25 425 -18 b 51 204 142 -18 51 69 m 847 543 b 694 421 753 543 710 493 l 988 421 b 847 543 988 489 940 543 m 269 214 b 365 140 269 167 306 140 b 504 260 454 140 504 188 l 504 293 l 382 289 b 269 214 303 286 269 269 "},"ǽ":{"ha":1246,"x_min":0,"x_max":0,"o":"m 682 779 l 528 779 l 644 1010 l 836 1010 m 51 204 b 308 419 51 340 154 417 l 503 424 l 503 450 b 378 554 503 521 458 554 b 246 457 292 554 246 517 l 68 457 b 382 717 68 613 194 717 b 618 636 500 717 572 688 b 846 717 676 688 754 717 b 1200 347 1071 717 1200 567 l 1200 293 l 694 290 b 854 156 708 208 757 156 b 1007 235 940 156 993 189 l 1203 235 b 850 -18 1178 83 1043 -18 b 575 114 732 -18 636 31 b 306 -18 522 25 425 -18 b 51 204 142 -18 51 69 m 847 543 b 694 421 753 543 710 493 l 988 421 b 847 543 988 489 940 543 m 269 214 b 365 140 269 167 306 140 b 504 260 454 140 504 188 l 504 293 l 382 289 b 269 214 303 286 269 269 "},"b":{"ha":889,"x_min":0,"x_max":0,"o":"m 81 0 l 81 1047 l 294 1047 l 294 614 b 528 718 336 676 428 718 b 846 340 722 718 846 567 b 511 -18 846 125 708 -18 b 293 89 414 -18 331 25 l 282 0 m 296 351 b 465 178 296 247 365 178 b 631 351 567 178 631 249 b 465 525 631 454 567 525 b 296 351 365 525 296 456 "},"c":{"ha":790,"x_min":0,"x_max":0,"o":"m 43 350 b 399 717 43 564 190 717 b 754 422 604 717 740 604 l 539 422 b 407 525 524 492 481 525 b 258 350 317 525 258 457 b 404 174 258 239 313 174 b 539 276 479 174 525 208 l 754 276 b 404 -18 740 101 599 -18 b 43 350 185 -18 43 128 "},"ć":{"ha":790,"x_min":0,"x_max":0,"o":"m 476 779 l 322 779 l 439 1010 l 631 1010 m 43 350 b 399 717 43 564 190 717 b 754 422 604 717 740 604 l 539 422 b 407 525 524 492 481 525 b 258 350 317 525 258 457 b 404 174 258 239 313 174 b 539 276 479 174 525 208 l 754 276 b 404 -18 740 101 599 -18 b 43 350 185 -18 43 128 "},"č":{"ha":790,"x_min":0,"x_max":0,"o":"m 160 1024 l 321 1024 l 400 878 l 479 1024 l 640 1024 l 503 779 l 297 779 m 43 350 b 399 717 43 564 190 717 b 754 422 604 717 740 604 l 539 422 b 407 525 524 492 481 525 b 258 350 317 525 258 457 b 404 174 258 239 313 174 b 539 276 479 174 525 208 l 754 276 b 404 -18 740 101 599 -18 b 43 350 185 -18 43 128 "},"ç":{"ha":790,"x_min":0,"x_max":0,"o":"m 43 350 b 399 717 43 564 190 717 b 754 422 604 717 740 604 l 539 422 b 407 525 524 492 481 525 b 258 350 317 525 258 457 b 404 174 258 239 313 174 b 539 276 479 174 525 208 l 754 276 b 435 -17 742 111 614 -6 l 408 -67 b 458 -58 422 -61 439 -58 b 579 -176 514 -58 579 -90 b 403 -322 579 -271 501 -322 b 290 -296 354 -322 321 -311 l 290 -207 b 392 -233 325 -222 353 -233 b 469 -176 446 -233 469 -210 b 408 -128 469 -146 447 -128 b 340 -139 381 -128 360 -132 l 321 -85 l 354 -15 b 43 350 164 6 43 146 "},"ĉ":{"ha":790,"x_min":0,"x_max":0,"o":"m 160 779 l 297 1024 l 503 1024 l 640 779 l 479 779 l 400 925 l 321 779 m 43 350 b 399 717 43 564 190 717 b 754 422 604 717 740 604 l 539 422 b 407 525 524 492 481 525 b 258 350 317 525 258 457 b 404 174 258 239 313 174 b 539 276 479 174 525 208 l 754 276 b 404 -18 740 101 599 -18 b 43 350 185 -18 43 128 "},"ċ":{"ha":790,"x_min":0,"x_max":0,"o":"m 399 789 b 286 903 336 789 286 839 b 399 1017 286 965 338 1017 b 513 903 461 1017 513 964 b 399 789 513 840 461 789 m 43 350 b 399 717 43 564 190 717 b 754 422 604 717 740 604 l 539 422 b 407 525 524 492 481 525 b 258 350 317 525 258 457 b 404 174 258 239 313 174 b 539 276 479 174 525 208 l 754 276 b 404 -18 740 101 599 -18 b 43 350 185 -18 43 128 "},"d":{"ha":889,"x_min":0,"x_max":0,"o":"m 372 -18 b 43 343 172 -18 43 124 b 386 717 43 564 175 717 b 594 631 472 717 554 682 l 594 1047 l 808 1047 l 808 0 l 607 0 l 596 89 b 372 -18 558 25 472 -18 m 424 178 b 593 351 524 178 593 247 b 424 525 593 456 524 525 b 258 351 322 525 258 454 b 424 178 258 249 322 178 "},"ð":{"ha":842,"x_min":0,"x_max":0,"o":"m 43 340 b 393 683 43 550 206 683 b 546 646 453 683 504 674 b 454 811 522 696 492 751 l 274 749 l 231 864 l 382 915 b 271 1047 349 960 313 1004 l 513 1047 b 571 981 533 1025 553 1003 l 672 1015 l 715 900 l 646 876 b 799 386 744 721 799 550 b 422 -18 799 113 629 -18 b 43 340 189 -18 43 129 m 258 332 b 419 174 258 249 311 174 b 579 329 526 174 579 244 b 418 492 579 417 526 492 b 258 332 311 492 258 418 "},"ď":{"ha":889,"x_min":0,"x_max":0,"o":"m 372 -18 b 43 343 172 -18 43 124 b 386 717 43 564 175 717 b 594 631 472 717 554 682 l 594 1047 l 808 1047 l 808 0 l 607 0 l 596 89 b 372 -18 558 25 472 -18 m 874 1047 l 1044 1047 l 1000 775 l 874 775 m 424 178 b 593 351 524 178 593 247 b 424 525 593 456 524 525 b 258 351 322 525 258 454 b 424 178 258 249 322 178 "},"đ":{"ha":889,"x_min":0,"x_max":0,"o":"m 372 -18 b 43 343 172 -18 43 124 b 386 717 43 564 175 717 b 594 631 472 717 554 682 l 594 801 l 379 801 l 379 925 l 594 925 l 594 1047 l 808 1047 l 808 925 l 899 925 l 899 801 l 808 801 l 808 0 l 607 0 l 596 89 b 372 -18 558 25 472 -18 m 424 178 b 593 351 524 178 593 247 b 424 525 593 456 524 525 b 258 351 322 525 258 454 b 424 178 258 249 322 178 "},"e":{"ha":799,"x_min":0,"x_max":0,"o":"m 403 -18 b 43 349 193 -18 43 135 b 399 717 43 565 189 717 b 753 347 617 717 753 574 l 753 293 l 249 290 b 407 156 261 199 313 156 b 560 235 488 156 544 185 l 756 235 b 403 -18 731 81 593 -18 m 400 543 b 251 422 315 543 268 506 l 540 422 b 400 543 540 496 486 543 "},"é":{"ha":799,"x_min":0,"x_max":0,"o":"m 479 779 l 325 779 l 442 1010 l 633 1010 m 403 -18 b 43 349 193 -18 43 135 b 399 717 43 565 189 717 b 753 347 617 717 753 574 l 753 293 l 249 290 b 407 156 261 199 313 156 b 560 235 488 156 544 185 l 756 235 b 403 -18 731 81 593 -18 m 400 543 b 251 422 315 543 268 506 l 540 422 b 400 543 540 496 486 543 "},"ĕ":{"ha":799,"x_min":0,"x_max":0,"o":"m 649 1013 b 404 765 649 861 553 765 b 157 1013 251 765 157 860 l 308 1013 b 404 904 308 943 343 904 b 499 1013 464 904 499 944 m 403 -18 b 43 349 193 -18 43 135 b 399 717 43 565 189 717 b 753 347 617 717 753 574 l 753 293 l 249 290 b 407 156 261 199 313 156 b 560 235 488 156 544 185 l 756 235 b 403 -18 731 81 593 -18 m 400 543 b 251 422 315 543 268 506 l 540 422 b 400 543 540 496 486 543 "},"ě":{"ha":799,"x_min":0,"x_max":0,"o":"m 163 1024 l 324 1024 l 403 878 l 482 1024 l 643 1024 l 506 779 l 300 779 m 403 -18 b 43 349 193 -18 43 135 b 399 717 43 565 189 717 b 753 347 617 717 753 574 l 753 293 l 249 290 b 407 156 261 199 313 156 b 560 235 488 156 544 185 l 756 235 b 403 -18 731 81 593 -18 m 400 543 b 251 422 315 543 268 506 l 540 422 b 400 543 540 496 486 543 "},"ê":{"ha":799,"x_min":0,"x_max":0,"o":"m 163 779 l 300 1024 l 506 1024 l 643 779 l 482 779 l 403 925 l 324 779 m 403 -18 b 43 349 193 -18 43 135 b 399 717 43 565 189 717 b 753 347 617 717 753 574 l 753 293 l 249 290 b 407 156 261 199 313 156 b 560 235 488 156 544 185 l 756 235 b 403 -18 731 81 593 -18 m 400 543 b 251 422 315 543 268 506 l 540 422 b 400 543 540 496 486 543 "},"ë":{"ha":799,"x_min":0,"x_max":0,"o":"m 265 789 b 158 897 206 789 158 836 b 265 1004 158 956 207 1004 b 372 897 324 1004 372 954 b 265 789 372 838 324 789 m 540 789 b 433 897 481 789 433 836 b 540 1004 433 956 482 1004 b 647 897 599 1004 647 954 b 540 789 647 838 599 789 m 403 -18 b 43 349 193 -18 43 135 b 399 717 43 565 189 717 b 753 347 617 717 753 574 l 753 293 l 249 290 b 407 156 261 199 313 156 b 560 235 488 156 544 185 l 756 235 b 403 -18 731 81 593 -18 m 400 543 b 251 422 315 543 268 506 l 540 422 b 400 543 540 496 486 543 "},"ė":{"ha":799,"x_min":0,"x_max":0,"o":"m 401 789 b 289 903 339 789 289 839 b 401 1017 289 965 340 1017 b 515 903 464 1017 515 964 b 401 789 515 840 464 789 m 403 -18 b 43 349 193 -18 43 135 b 399 717 43 565 189 717 b 753 347 617 717 753 574 l 753 293 l 249 290 b 407 156 261 199 313 156 b 560 235 488 156 544 185 l 756 235 b 403 -18 731 81 593 -18 m 400 543 b 251 422 315 543 268 506 l 540 422 b 400 543 540 496 486 543 "},"è":{"ha":799,"x_min":0,"x_max":0,"o":"m 325 779 l 171 1010 l 363 1010 l 479 779 m 403 -18 b 43 349 193 -18 43 135 b 399 717 43 565 189 717 b 753 347 617 717 753 574 l 753 293 l 249 290 b 407 156 261 199 313 156 b 560 235 488 156 544 185 l 756 235 b 403 -18 731 81 593 -18 m 400 543 b 251 422 315 543 268 506 l 540 422 b 400 543 540 496 486 543 "},"ē":{"ha":799,"x_min":0,"x_max":0,"o":"m 201 960 l 604 960 l 604 815 l 201 815 m 403 -18 b 43 349 193 -18 43 135 b 399 717 43 565 189 717 b 753 347 617 717 753 574 l 753 293 l 249 290 b 407 156 261 199 313 156 b 560 235 488 156 544 185 l 756 235 b 403 -18 731 81 593 -18 m 400 543 b 251 422 315 543 268 506 l 540 422 b 400 543 540 496 486 543 "},"ę":{"ha":799,"x_min":0,"x_max":0,"o":"m 525 -294 b 443 -310 500 -306 474 -310 b 283 -161 344 -310 283 -242 b 372 -17 283 -107 311 -51 b 43 349 179 -3 43 146 b 399 717 43 565 189 717 b 753 347 617 717 753 574 l 753 293 l 249 290 b 407 156 261 199 313 156 b 560 235 488 156 544 185 l 756 235 b 532 -1 736 118 653 33 b 424 -112 456 -28 424 -74 b 482 -168 424 -143 446 -168 b 525 -158 494 -168 510 -165 l 525 -294 m 400 543 b 251 422 315 543 268 506 l 540 422 b 400 543 540 496 486 543 "},"f":{"ha":507,"x_min":0,"x_max":0,"o":"m 111 694 l 111 750 b 396 1047 111 957 219 1047 b 492 1039 425 1047 458 1044 l 492 856 l 432 856 b 325 750 344 856 325 810 l 325 694 l 492 694 l 492 517 l 325 517 l 325 0 l 111 0 l 111 517 l 15 517 l 15 694 "},"g":{"ha":879,"x_min":0,"x_max":0,"o":"m 46 360 b 379 718 46 571 183 718 b 586 625 474 718 549 682 l 597 694 l 799 694 l 799 44 b 418 -354 799 -204 656 -354 b 43 -36 206 -354 63 -233 l 260 -36 b 417 -160 264 -114 322 -160 b 585 0 519 -160 585 -99 l 585 90 b 375 8 543 40 465 8 b 46 360 181 8 46 151 m 261 365 b 422 194 261 265 328 194 b 585 365 519 194 585 263 b 421 532 585 467 519 532 b 261 365 326 532 261 464 "},"ğ":{"ha":879,"x_min":0,"x_max":0,"o":"m 647 1013 b 403 765 647 861 551 765 b 156 1013 250 765 156 860 l 307 1013 b 403 904 307 943 342 904 b 497 1013 463 904 497 944 m 46 360 b 379 718 46 571 183 718 b 586 625 474 718 549 682 l 597 694 l 799 694 l 799 44 b 418 -354 799 -204 656 -354 b 43 -36 206 -354 63 -233 l 260 -36 b 417 -160 264 -114 322 -160 b 585 0 519 -160 585 -99 l 585 90 b 375 8 543 40 465 8 b 46 360 181 8 46 151 m 261 365 b 422 194 261 265 328 194 b 585 365 519 194 585 263 b 421 532 585 467 519 532 b 261 365 326 532 261 464 "},"ĝ":{"ha":879,"x_min":0,"x_max":0,"o":"m 161 779 l 299 1024 l 504 1024 l 642 779 l 481 779 l 401 925 l 322 779 m 46 360 b 379 718 46 571 183 718 b 586 625 474 718 549 682 l 597 694 l 799 694 l 799 44 b 418 -354 799 -204 656 -354 b 43 -36 206 -354 63 -233 l 260 -36 b 417 -160 264 -114 322 -160 b 585 0 519 -160 585 -99 l 585 90 b 375 8 543 40 465 8 b 46 360 181 8 46 151 m 261 365 b 422 194 261 265 328 194 b 585 365 519 194 585 263 b 421 532 585 467 519 532 b 261 365 326 532 261 464 "},"ģ":{"ha":879,"x_min":0,"x_max":0,"o":"m 494 901 b 393 807 494 844 454 807 b 288 929 329 807 288 856 b 483 1099 288 1033 351 1117 l 483 1033 b 371 981 410 1043 374 1024 b 410 990 381 988 394 990 b 494 901 461 990 494 951 m 46 360 b 379 718 46 571 183 718 b 586 625 474 718 549 682 l 597 694 l 799 694 l 799 44 b 418 -354 799 -204 656 -354 b 43 -36 206 -354 63 -233 l 260 -36 b 417 -160 264 -114 322 -160 b 585 0 519 -160 585 -99 l 585 90 b 375 8 543 40 465 8 b 46 360 181 8 46 151 m 261 365 b 422 194 261 265 328 194 b 585 365 519 194 585 263 b 421 532 585 467 519 532 b 261 365 326 532 261 464 "},"ġ":{"ha":879,"x_min":0,"x_max":0,"o":"m 400 789 b 288 903 338 789 288 839 b 400 1017 288 965 339 1017 b 514 903 463 1017 514 964 b 400 789 514 840 463 789 m 46 360 b 379 718 46 571 183 718 b 586 625 474 718 549 682 l 597 694 l 799 694 l 799 44 b 418 -354 799 -204 656 -354 b 43 -36 206 -354 63 -233 l 260 -36 b 417 -160 264 -114 322 -160 b 585 0 519 -160 585 -99 l 585 90 b 375 8 543 40 465 8 b 46 360 181 8 46 151 m 261 365 b 422 194 261 265 328 194 b 585 365 519 194 585 263 b 421 532 585 467 519 532 b 261 365 326 532 261 464 "},"h":{"ha":842,"x_min":0,"x_max":0,"o":"m 81 0 l 81 1047 l 296 1047 l 296 622 b 508 717 339 682 418 717 b 769 429 674 717 769 611 l 769 0 l 556 0 l 556 378 b 433 522 556 465 507 522 b 294 381 349 522 294 467 l 294 0 "},"ħ":{"ha":842,"x_min":0,"x_max":0,"o":"m 81 0 l 81 801 l -10 801 l -10 925 l 81 925 l 81 1047 l 296 1047 l 296 925 l 510 925 l 510 801 l 296 801 l 296 622 b 508 717 339 682 418 717 b 769 429 674 717 769 611 l 769 0 l 556 0 l 556 378 b 433 522 556 465 507 522 b 294 381 349 522 294 467 l 294 0 "},"i":{"ha":375,"x_min":0,"x_max":0,"o":"m 186 803 b 64 925 118 803 64 857 b 186 1046 64 993 118 1046 b 307 925 253 1046 307 993 b 186 803 307 857 253 803 m 81 694 l 294 694 l 294 0 l 81 0 "},"í":{"ha":375,"x_min":0,"x_max":0,"o":"m 265 779 l 111 779 l 228 1010 l 419 1010 m 81 694 l 294 694 l 294 0 l 81 0 "},"î":{"ha":375,"x_min":0,"x_max":0,"o":"m -51 779 l 86 1024 l 292 1024 l 429 779 l 268 779 l 189 925 l 110 779 m 81 694 l 294 694 l 294 0 l 81 0 "},"ï":{"ha":375,"x_min":0,"x_max":0,"o":"m 51 789 b -56 897 -8 789 -56 836 b 51 1004 -56 956 -7 1004 b 158 897 110 1004 158 954 b 51 789 158 838 110 789 m 326 789 b 219 897 267 789 219 836 b 326 1004 219 956 268 1004 b 433 897 385 1004 433 954 b 326 789 433 838 385 789 m 81 694 l 294 694 l 294 0 l 81 0 "},"ì":{"ha":375,"x_min":0,"x_max":0,"o":"m 111 779 l -43 1010 l 149 1010 l 265 779 m 81 694 l 294 694 l 294 0 l 81 0 "},"ī":{"ha":375,"x_min":0,"x_max":0,"o":"m -12 960 l 390 960 l 390 815 l -12 815 m 81 694 l 294 694 l 294 0 l 81 0 "},"į":{"ha":375,"x_min":0,"x_max":0,"o":"m 186 803 b 64 925 118 803 64 857 b 186 1046 64 993 118 1046 b 307 925 253 1046 307 993 b 186 803 307 857 253 803 m 81 694 l 294 694 l 294 0 l 293 0 b 182 -112 215 -26 182 -74 b 240 -168 182 -143 204 -168 b 283 -158 253 -168 268 -165 l 283 -294 b 201 -310 258 -306 232 -310 b 42 -161 103 -310 42 -242 b 167 0 42 -97 81 -32 l 81 0 "},"ĩ":{"ha":375,"x_min":0,"x_max":0,"o":"m -75 782 b 69 1007 -92 918 -32 1007 b 283 921 171 1007 224 921 b 333 1007 319 921 333 957 l 453 1007 b 307 782 468 854 406 782 b 93 868 201 782 146 868 b 44 783 57 868 44 836 m 81 694 l 294 694 l 294 0 l 81 0 "},"j":{"ha":375,"x_min":0,"x_max":0,"o":"m 188 803 b 65 925 119 803 65 857 b 188 1046 65 993 119 1046 b 308 925 254 1046 308 993 b 188 803 308 857 254 803 m -40 -150 b 13 -158 -19 -157 -8 -158 b 81 -68 65 -158 81 -129 l 81 694 l 294 694 l 294 -96 b 33 -356 294 -251 200 -356 b -75 -339 3 -356 -25 -354 "},"ĵ":{"ha":375,"x_min":0,"x_max":0,"o":"m -50 779 l 88 1024 l 293 1024 l 431 779 l 269 779 l 190 925 l 111 779 m -40 -150 b 13 -158 -19 -157 -8 -158 b 81 -68 65 -158 81 -129 l 81 694 l 294 694 l 294 -96 b 33 -356 294 -251 200 -356 b -75 -339 3 -356 -25 -354 "},"k":{"ha":794,"x_min":0,"x_max":0,"o":"m 81 0 l 81 1047 l 294 1047 l 294 444 l 519 694 l 788 694 l 526 419 l 779 0 l 532 0 l 376 260 l 294 174 l 294 0 "},"ķ":{"ha":794,"x_min":0,"x_max":0,"o":"m 81 0 l 81 1047 l 294 1047 l 294 444 l 519 694 l 788 694 l 526 419 l 779 0 l 532 0 l 376 260 l 294 174 l 294 0 m 500 -169 b 304 -339 500 -274 436 -357 l 304 -274 b 417 -221 378 -283 414 -264 b 378 -231 407 -228 393 -231 b 293 -142 326 -231 293 -192 b 394 -47 293 -85 333 -47 b 500 -169 458 -47 500 -96 "},"l":{"ha":375,"x_min":0,"x_max":0,"o":"m 81 0 l 81 1047 l 294 1047 l 294 0 "},"ĺ":{"ha":375,"x_min":0,"x_max":0,"o":"m 264 1092 l 110 1092 l 226 1322 l 418 1322 m 81 0 l 81 1047 l 294 1047 l 294 0 "},"ľ":{"ha":375,"x_min":0,"x_max":0,"o":"m 81 0 l 81 1047 l 294 1047 l 294 0 m 360 1047 l 531 1047 l 486 775 l 360 775 "},"ļ":{"ha":375,"x_min":0,"x_max":0,"o":"m 81 0 l 81 1047 l 294 1047 l 294 0 m 289 -169 b 93 -339 289 -274 225 -357 l 93 -274 b 206 -221 167 -283 203 -264 b 167 -231 196 -228 182 -231 b 82 -142 115 -231 82 -192 b 183 -47 82 -85 122 -47 b 289 -169 247 -47 289 -96 "},"ŀ":{"ha":578,"x_min":0,"x_max":0,"o":"m 81 0 l 81 1047 l 294 1047 l 294 0 m 478 389 b 360 504 413 389 360 442 b 478 621 360 568 413 621 b 593 504 539 621 593 567 b 478 389 593 443 540 389 "},"ł":{"ha":375,"x_min":0,"x_max":0,"o":"m 81 0 l 81 411 l 13 379 l 13 528 l 81 560 l 81 1047 l 294 1047 l 294 663 l 365 696 l 365 547 l 294 514 l 294 0 "},"m":{"ha":1267,"x_min":0,"x_max":0,"o":"m 81 0 l 81 694 l 281 694 l 294 622 b 497 717 329 671 397 717 b 708 594 601 717 668 668 b 926 717 744 668 826 717 b 1194 454 1106 717 1194 613 l 1194 0 l 981 0 l 981 394 b 867 524 981 482 935 524 b 744 372 806 524 744 490 l 744 0 l 531 0 l 531 394 b 418 522 531 481 486 522 b 294 372 357 522 294 489 l 294 0 "},"n":{"ha":842,"x_min":0,"x_max":0,"o":"m 81 0 l 81 694 l 282 694 l 296 622 b 508 717 339 682 418 717 b 769 429 674 717 769 611 l 769 0 l 556 0 l 556 378 b 433 522 556 465 507 522 b 294 381 349 522 294 467 l 294 0 "},"ń":{"ha":842,"x_min":0,"x_max":0,"o":"m 515 779 l 361 779 l 478 1010 l 669 1010 m 81 0 l 81 694 l 282 694 l 296 622 b 508 717 339 682 418 717 b 769 429 674 717 769 611 l 769 0 l 556 0 l 556 378 b 433 522 556 465 507 522 b 294 381 349 522 294 467 l 294 0 "},"ň":{"ha":842,"x_min":0,"x_max":0,"o":"m 199 1024 l 360 1024 l 439 878 l 518 1024 l 679 1024 l 542 779 l 336 779 m 81 0 l 81 694 l 282 694 l 296 622 b 508 717 339 682 418 717 b 769 429 674 717 769 611 l 769 0 l 556 0 l 556 378 b 433 522 556 465 507 522 b 294 381 349 522 294 467 l 294 0 "},"ņ":{"ha":842,"x_min":0,"x_max":0,"o":"m 81 0 l 81 694 l 282 694 l 296 622 b 508 717 339 682 418 717 b 769 429 674 717 769 611 l 769 0 l 556 0 l 556 378 b 433 522 556 465 507 522 b 294 381 349 522 294 467 l 294 0 m 528 -169 b 332 -339 528 -274 464 -357 l 332 -274 b 444 -221 406 -283 442 -264 b 406 -231 435 -228 421 -231 b 321 -142 354 -231 321 -192 b 422 -47 321 -85 361 -47 b 528 -169 486 -47 528 -96 "},"ŋ":{"ha":842,"x_min":0,"x_max":0,"o":"m 81 0 l 81 694 l 282 694 l 296 622 b 508 717 339 682 418 717 b 769 429 674 717 769 611 l 769 -96 b 508 -356 769 -251 675 -356 b 400 -339 478 -356 450 -354 l 435 -150 b 488 -158 456 -157 467 -158 b 556 -68 540 -158 556 -129 l 556 378 b 433 522 556 465 507 522 b 294 381 349 522 294 467 l 294 0 "},"ñ":{"ha":842,"x_min":0,"x_max":0,"o":"m 175 782 b 319 1007 158 918 218 1007 b 533 921 421 1007 474 921 b 583 1007 569 921 583 957 l 703 1007 b 557 782 718 854 656 782 b 343 868 451 782 396 868 b 294 783 307 868 294 836 m 81 0 l 81 694 l 282 694 l 296 622 b 508 717 339 682 418 717 b 769 429 674 717 769 611 l 769 0 l 556 0 l 556 378 b 433 522 556 465 507 522 b 294 381 349 522 294 467 l 294 0 "},"o":{"ha":851,"x_min":0,"x_max":0,"o":"m 43 349 b 426 715 43 568 204 715 b 808 349 647 715 808 568 b 426 -17 808 129 647 -17 b 43 349 204 -17 43 129 m 258 350 b 426 175 258 244 326 175 b 593 350 525 175 593 244 b 426 524 593 454 525 524 b 258 350 326 524 258 454 "},"ó":{"ha":851,"x_min":0,"x_max":0,"o":"m 503 779 l 349 779 l 465 1010 l 657 1010 m 43 349 b 426 715 43 568 204 715 b 808 349 647 715 808 568 b 426 -17 808 129 647 -17 b 43 349 204 -17 43 129 m 258 350 b 426 175 258 244 326 175 b 593 350 525 175 593 244 b 426 524 593 454 525 524 b 258 350 326 524 258 454 "},"ô":{"ha":851,"x_min":0,"x_max":0,"o":"m 186 779 l 324 1024 l 529 1024 l 667 779 l 506 779 l 426 925 l 347 779 m 43 349 b 426 715 43 568 204 715 b 808 349 647 715 808 568 b 426 -17 808 129 647 -17 b 43 349 204 -17 43 129 m 258 350 b 426 175 258 244 326 175 b 593 350 525 175 593 244 b 426 524 593 454 525 524 b 258 350 326 524 258 454 "},"ö":{"ha":851,"x_min":0,"x_max":0,"o":"m 289 789 b 182 897 229 789 182 836 b 289 1004 182 956 231 1004 b 396 897 347 1004 396 954 b 289 789 396 838 347 789 m 564 789 b 457 897 504 789 457 836 b 564 1004 457 956 506 1004 b 671 897 622 1004 671 954 b 564 789 671 838 622 789 m 43 349 b 426 715 43 568 204 715 b 808 349 647 715 808 568 b 426 -17 808 129 647 -17 b 43 349 204 -17 43 129 m 258 350 b 426 175 258 244 326 175 b 593 350 525 175 593 244 b 426 524 593 454 525 524 b 258 350 326 524 258 454 "},"ò":{"ha":851,"x_min":0,"x_max":0,"o":"m 349 779 l 194 1010 l 386 1010 l 503 779 m 43 349 b 426 715 43 568 204 715 b 808 349 647 715 808 568 b 426 -17 808 129 647 -17 b 43 349 204 -17 43 129 m 258 350 b 426 175 258 244 326 175 b 593 350 525 175 593 244 b 426 524 593 454 525 524 b 258 350 326 524 258 454 "},"ő":{"ha":851,"x_min":0,"x_max":0,"o":"m 385 779 l 238 779 l 368 1010 l 539 1010 m 629 779 l 482 779 l 613 1010 l 783 1010 m 43 349 b 426 715 43 568 204 715 b 808 349 647 715 808 568 b 426 -17 808 129 647 -17 b 43 349 204 -17 43 129 m 258 350 b 426 175 258 244 326 175 b 593 350 525 175 593 244 b 426 524 593 454 525 524 b 258 350 326 524 258 454 "},"ō":{"ha":851,"x_min":0,"x_max":0,"o":"m 225 960 l 628 960 l 628 815 l 225 815 m 43 349 b 426 715 43 568 204 715 b 808 349 647 715 808 568 b 426 -17 808 129 647 -17 b 43 349 204 -17 43 129 m 258 350 b 426 175 258 244 326 175 b 593 350 525 175 593 244 b 426 524 593 454 525 524 b 258 350 326 524 258 454 "},"ø":{"ha":851,"x_min":0,"x_max":0,"o":"m 43 349 b 426 715 43 568 204 715 b 556 697 472 715 515 708 l 594 760 l 776 760 l 692 622 b 808 349 765 557 808 463 b 426 -17 808 129 647 -17 b 308 -1 385 -17 346 -11 l 268 -68 l 76 -68 l 164 72 b 43 349 89 136 43 232 m 258 350 b 281 257 258 314 267 283 l 446 522 b 426 524 440 524 433 524 b 258 350 326 524 258 454 m 593 350 b 576 433 593 381 588 410 l 418 175 b 426 175 418 175 418 175 b 593 350 525 175 593 244 "},"ǿ":{"ha":851,"x_min":0,"x_max":0,"o":"m 503 779 l 349 779 l 465 1010 l 657 1010 m 43 349 b 426 715 43 568 204 715 b 556 697 472 715 515 708 l 594 760 l 776 760 l 692 622 b 808 349 765 557 808 463 b 426 -17 808 129 647 -17 b 308 -1 385 -17 346 -11 l 268 -68 l 76 -68 l 164 72 b 43 349 89 136 43 232 m 258 350 b 281 257 258 314 267 283 l 446 522 b 426 524 440 524 433 524 b 258 350 326 524 258 454 m 593 350 b 576 433 593 381 588 410 l 418 175 b 426 175 418 175 418 175 b 593 350 525 175 593 244 "},"õ":{"ha":851,"x_min":0,"x_max":0,"o":"m 163 782 b 307 1007 146 918 206 1007 b 521 921 408 1007 461 921 b 571 1007 557 921 571 957 l 690 1007 b 544 782 706 854 643 782 b 331 868 439 782 383 868 b 282 783 294 868 282 836 m 43 349 b 426 715 43 568 204 715 b 808 349 647 715 808 568 b 426 -17 808 129 647 -17 b 43 349 204 -17 43 129 m 258 350 b 426 175 258 244 326 175 b 593 350 525 175 593 244 b 426 524 593 454 525 524 b 258 350 326 524 258 454 "},"œ":{"ha":1358,"x_min":0,"x_max":0,"o":"m 43 349 b 426 715 43 568 204 715 b 697 610 539 715 633 676 b 958 717 761 678 851 717 b 1313 347 1176 717 1313 574 l 1313 293 l 808 290 b 967 156 821 199 872 156 b 1119 235 1047 156 1104 185 l 1315 235 b 963 -18 1290 81 1153 -18 b 700 90 856 -18 764 22 b 426 -17 635 22 540 -17 b 43 349 204 -17 43 129 m 960 543 b 811 422 875 543 828 506 l 1100 422 b 960 543 1100 496 1046 543 m 258 350 b 426 175 258 244 326 175 b 593 350 525 175 593 244 b 426 524 593 454 525 524 b 258 350 326 524 258 454 "},"p":{"ha":889,"x_min":0,"x_max":0,"o":"m 81 694 l 282 694 l 293 610 b 518 717 332 674 419 717 b 846 358 711 717 846 582 b 519 -19 846 139 726 -19 b 294 69 424 -19 335 17 l 294 -333 l 81 -333 m 296 347 b 465 174 296 243 365 174 b 631 347 567 174 631 244 b 465 521 631 450 567 521 b 296 347 365 521 296 451 "},"þ":{"ha":889,"x_min":0,"x_max":0,"o":"m 846 356 b 519 -19 846 136 726 -19 b 294 69 424 -19 335 17 l 294 -333 l 81 -333 l 81 1047 l 294 1047 l 294 614 b 528 718 336 676 428 718 b 846 356 719 718 846 576 m 631 351 b 465 525 631 454 567 525 b 296 351 365 525 296 456 b 465 174 296 247 365 174 b 631 351 567 174 631 249 "},"q":{"ha":889,"x_min":0,"x_max":0,"o":"m 43 358 b 371 717 43 582 178 717 b 596 610 469 717 557 674 l 607 694 l 808 694 l 808 -333 l 594 -333 l 594 69 b 369 -19 554 17 465 -19 b 43 358 163 -19 43 139 m 258 347 b 424 174 258 244 322 174 b 593 347 524 174 593 243 b 424 521 593 451 524 521 b 258 347 322 521 258 450 "},"r":{"ha":586,"x_min":0,"x_max":0,"o":"m 558 493 l 490 493 b 294 301 368 493 294 439 l 294 0 l 81 0 l 81 693 l 282 693 l 293 590 b 476 704 322 658 383 704 b 558 694 501 704 529 701 "},"ŕ":{"ha":586,"x_min":0,"x_max":0,"o":"m 392 779 l 238 779 l 354 1010 l 546 1010 m 558 493 l 490 493 b 294 301 368 493 294 439 l 294 0 l 81 0 l 81 693 l 282 693 l 293 590 b 476 704 322 658 383 704 b 558 694 501 704 529 701 "},"ř":{"ha":586,"x_min":0,"x_max":0,"o":"m 75 1024 l 236 1024 l 315 878 l 394 1024 l 556 1024 l 418 779 l 213 779 m 558 493 l 490 493 b 294 301 368 493 294 439 l 294 0 l 81 0 l 81 693 l 282 693 l 293 590 b 476 704 322 658 383 704 b 558 694 501 704 529 701 "},"ŗ":{"ha":586,"x_min":0,"x_max":0,"o":"m 558 493 l 490 493 b 294 301 368 493 294 439 l 294 0 l 81 0 l 81 693 l 282 693 l 293 590 b 476 704 322 658 383 704 b 558 694 501 704 529 701 m 290 -169 b 94 -339 290 -274 226 -357 l 94 -274 b 207 -221 168 -283 204 -264 b 168 -231 197 -228 183 -231 b 83 -142 117 -231 83 -192 b 185 -47 83 -85 124 -47 b 290 -169 249 -47 290 -96 "},"s":{"ha":667,"x_min":0,"x_max":0,"o":"m 233 219 b 338 142 236 171 272 142 b 435 201 404 142 435 165 b 372 256 435 222 424 244 l 244 283 b 54 489 117 311 54 367 b 344 717 54 633 178 717 b 618 482 506 717 618 622 l 415 482 b 335 561 415 529 386 561 b 256 499 286 561 256 536 b 331 438 256 467 282 449 l 460 410 b 636 221 574 385 636 332 b 329 -18 636 72 510 -18 b 31 219 146 -18 31 79 "},"ś":{"ha":667,"x_min":0,"x_max":0,"o":"m 422 779 l 268 779 l 385 1010 l 576 1010 m 233 219 b 338 142 236 171 272 142 b 435 201 404 142 435 165 b 372 256 435 222 424 244 l 244 283 b 54 489 117 311 54 367 b 344 717 54 633 178 717 b 618 482 506 717 618 622 l 415 482 b 335 561 415 529 386 561 b 256 499 286 561 256 536 b 331 438 256 467 282 449 l 460 410 b 636 221 574 385 636 332 b 329 -18 636 72 510 -18 b 31 219 146 -18 31 79 "},"š":{"ha":667,"x_min":0,"x_max":0,"o":"m 106 1024 l 267 1024 l 346 878 l 425 1024 l 586 1024 l 449 779 l 243 779 m 233 219 b 338 142 236 171 272 142 b 435 201 404 142 435 165 b 372 256 435 222 424 244 l 244 283 b 54 489 117 311 54 367 b 344 717 54 633 178 717 b 618 482 506 717 618 622 l 415 482 b 335 561 415 529 386 561 b 256 499 286 561 256 536 b 331 438 256 467 282 449 l 460 410 b 636 221 574 385 636 332 b 329 -18 636 72 510 -18 b 31 219 146 -18 31 79 "},"ş":{"ha":667,"x_min":0,"x_max":0,"o":"m 233 219 b 338 142 236 171 272 142 b 435 201 404 142 435 165 b 372 256 435 222 424 244 l 244 283 b 54 489 117 311 54 367 b 344 717 54 633 178 717 b 618 482 506 717 618 622 l 415 482 b 335 561 415 529 386 561 b 256 499 286 561 256 536 b 331 438 256 467 282 449 l 460 410 b 636 221 574 385 636 332 b 363 -17 636 82 525 -7 l 336 -67 b 386 -58 350 -61 367 -58 b 507 -176 442 -58 507 -90 b 331 -322 507 -271 429 -322 b 218 -296 282 -322 249 -311 l 218 -207 b 319 -233 253 -222 281 -233 b 397 -176 374 -233 397 -210 b 336 -128 397 -146 375 -128 b 268 -139 308 -128 288 -132 l 249 -85 l 282 -15 b 31 219 126 0 31 92 "},"ŝ":{"ha":667,"x_min":0,"x_max":0,"o":"m 106 779 l 243 1024 l 449 1024 l 586 779 l 425 779 l 346 925 l 267 779 m 233 219 b 338 142 236 171 272 142 b 435 201 404 142 435 165 b 372 256 435 222 424 244 l 244 283 b 54 489 117 311 54 367 b 344 717 54 633 178 717 b 618 482 506 717 618 622 l 415 482 b 335 561 415 529 386 561 b 256 499 286 561 256 536 b 331 438 256 467 282 449 l 460 410 b 636 221 574 385 636 332 b 329 -18 636 72 510 -18 b 31 219 146 -18 31 79 "},"ș":{"ha":667,"x_min":0,"x_max":0,"o":"m 233 219 b 338 142 236 171 272 142 b 435 201 404 142 435 165 b 372 256 435 222 424 244 l 244 283 b 54 489 117 311 54 367 b 344 717 54 633 178 717 b 618 482 506 717 618 622 l 415 482 b 335 561 415 529 386 561 b 256 499 286 561 256 536 b 331 438 256 467 282 449 l 460 410 b 636 221 574 385 636 332 b 329 -18 636 72 510 -18 b 31 219 146 -18 31 79 m 433 -169 b 238 -339 433 -274 369 -357 l 238 -274 b 350 -221 311 -283 347 -264 b 311 -231 340 -228 326 -231 b 226 -142 260 -231 226 -192 b 328 -47 226 -85 267 -47 b 433 -169 392 -47 433 -96 "},"ß":{"ha":853,"x_min":0,"x_max":0,"o":"m 81 0 l 81 714 b 421 1047 81 918 211 1047 b 754 774 629 1047 754 944 b 658 583 754 692 718 621 b 822 324 769 526 822 443 b 461 0 822 126 682 0 b 361 10 425 0 386 4 l 361 194 l 457 194 b 607 333 553 194 607 244 b 425 479 607 429 544 479 l 364 479 l 364 649 l 425 649 b 542 763 499 649 542 690 b 422 872 542 835 496 872 b 294 738 346 872 294 818 l 294 0 "},"t":{"ha":508,"x_min":0,"x_max":0,"o":"m 147 0 l 147 517 l 15 517 l 15 694 l 147 694 l 147 910 l 361 910 l 361 694 l 493 694 l 493 517 l 361 517 l 361 0 "},"ŧ":{"ha":508,"x_min":0,"x_max":0,"o":"m 147 0 l 147 263 l 47 263 l 47 426 l 147 426 l 147 517 l 15 517 l 15 694 l 147 694 l 147 910 l 361 910 l 361 694 l 493 694 l 493 517 l 361 517 l 361 426 l 461 426 l 461 263 l 361 263 l 361 0 "},"ť":{"ha":508,"x_min":0,"x_max":0,"o":"m 399 1028 l 569 1028 l 525 756 l 399 756 m 147 0 l 147 517 l 15 517 l 15 694 l 147 694 l 147 910 l 361 910 l 361 694 l 493 694 l 493 517 l 361 517 l 361 0 "},"ţ":{"ha":508,"x_min":0,"x_max":0,"o":"m 150 -207 b 251 -233 185 -222 213 -233 b 329 -176 306 -233 329 -210 b 268 -128 329 -146 307 -128 b 200 -139 240 -128 219 -132 l 181 -85 l 221 0 l 147 0 l 147 517 l 15 517 l 15 694 l 147 694 l 147 910 l 361 910 l 361 694 l 493 694 l 493 517 l 361 517 l 361 0 l 303 0 l 268 -67 b 318 -58 282 -61 299 -58 b 439 -176 374 -58 439 -90 b 263 -322 439 -271 361 -322 b 150 -296 214 -322 181 -311 "},"ț":{"ha":508,"x_min":0,"x_max":0,"o":"m 147 0 l 147 517 l 15 517 l 15 694 l 147 694 l 147 910 l 361 910 l 361 694 l 493 694 l 493 517 l 361 517 l 361 0 m 365 -169 b 169 -339 365 -274 301 -357 l 169 -274 b 282 -221 243 -283 279 -264 b 243 -231 272 -228 258 -231 b 158 -142 192 -231 158 -192 b 260 -47 158 -85 199 -47 b 365 -169 324 -47 365 -96 "},"u":{"ha":836,"x_min":0,"x_max":0,"o":"m 756 694 l 756 0 l 554 0 l 540 78 b 328 -18 497 21 411 -18 b 72 258 169 -18 72 88 l 72 694 l 286 694 l 286 336 b 413 172 286 222 325 172 b 542 333 504 172 542 219 l 542 694 "},"ú":{"ha":836,"x_min":0,"x_max":0,"o":"m 490 779 l 336 779 l 453 1010 l 644 1010 m 756 694 l 756 0 l 554 0 l 540 78 b 328 -18 497 21 411 -18 b 72 258 169 -18 72 88 l 72 694 l 286 694 l 286 336 b 413 172 286 222 325 172 b 542 333 504 172 542 219 l 542 694 "},"û":{"ha":836,"x_min":0,"x_max":0,"o":"m 174 779 l 311 1024 l 517 1024 l 654 779 l 493 779 l 414 925 l 335 779 m 756 694 l 756 0 l 554 0 l 540 78 b 328 -18 497 21 411 -18 b 72 258 169 -18 72 88 l 72 694 l 286 694 l 286 336 b 413 172 286 222 325 172 b 542 333 504 172 542 219 l 542 694 "},"ü":{"ha":836,"x_min":0,"x_max":0,"o":"m 276 789 b 169 897 217 789 169 836 b 276 1004 169 956 218 1004 b 383 897 335 1004 383 954 b 276 789 383 838 335 789 m 551 789 b 444 897 492 789 444 836 b 551 1004 444 956 493 1004 b 658 897 610 1004 658 954 b 551 789 658 838 610 789 m 756 694 l 756 0 l 554 0 l 540 78 b 328 -18 497 21 411 -18 b 72 258 169 -18 72 88 l 72 694 l 286 694 l 286 336 b 413 172 286 222 325 172 b 542 333 504 172 542 219 l 542 694 "},"ù":{"ha":836,"x_min":0,"x_max":0,"o":"m 336 779 l 182 1010 l 374 1010 l 490 779 m 756 694 l 756 0 l 554 0 l 540 78 b 328 -18 497 21 411 -18 b 72 258 169 -18 72 88 l 72 694 l 286 694 l 286 336 b 413 172 286 222 325 172 b 542 333 504 172 542 219 l 542 694 "},"ű":{"ha":836,"x_min":0,"x_max":0,"o":"m 372 779 l 225 779 l 356 1010 l 526 1010 m 617 779 l 469 779 l 600 1010 l 771 1010 m 756 694 l 756 0 l 554 0 l 540 78 b 328 -18 497 21 411 -18 b 72 258 169 -18 72 88 l 72 694 l 286 694 l 286 336 b 413 172 286 222 325 172 b 542 333 504 172 542 219 l 542 694 "},"ū":{"ha":836,"x_min":0,"x_max":0,"o":"m 213 960 l 615 960 l 615 815 l 213 815 m 756 694 l 756 0 l 554 0 l 540 78 b 328 -18 497 21 411 -18 b 72 258 169 -18 72 88 l 72 694 l 286 694 l 286 336 b 413 172 286 222 325 172 b 542 333 504 172 542 219 l 542 694 "},"ų":{"ha":836,"x_min":0,"x_max":0,"o":"m 554 0 l 540 78 b 328 -18 497 21 411 -18 b 72 258 169 -18 72 88 l 72 694 l 286 694 l 286 336 b 413 172 286 222 325 172 b 542 333 504 172 542 219 l 542 694 l 756 694 l 756 0 l 754 0 b 643 -112 676 -26 643 -74 b 701 -168 643 -143 665 -168 b 744 -158 714 -168 729 -165 l 744 -294 b 663 -310 719 -306 693 -310 b 503 -161 564 -310 503 -242 b 628 0 503 -97 542 -32 "},"ů":{"ha":836,"x_min":0,"x_max":0,"o":"m 414 754 b 218 947 300 754 218 835 b 414 1142 218 1057 303 1142 b 610 947 525 1142 610 1057 b 414 754 610 838 526 754 m 414 863 b 496 950 464 863 496 897 b 414 1033 496 999 463 1033 b 332 950 365 1033 332 1000 b 414 863 332 897 364 863 m 756 694 l 756 0 l 554 0 l 540 78 b 328 -18 497 21 411 -18 b 72 258 169 -18 72 88 l 72 694 l 286 694 l 286 336 b 413 172 286 222 325 172 b 542 333 504 172 542 219 l 542 694 "},"ũ":{"ha":836,"x_min":0,"x_max":0,"o":"m 150 782 b 294 1007 133 918 193 1007 b 508 921 396 1007 449 921 b 558 1007 544 921 558 957 l 678 1007 b 532 782 693 854 631 782 b 318 868 426 782 371 868 b 269 783 282 868 269 836 m 756 694 l 756 0 l 554 0 l 540 78 b 328 -18 497 21 411 -18 b 72 258 169 -18 72 88 l 72 694 l 286 694 l 286 336 b 413 172 286 222 325 172 b 542 333 504 172 542 219 l 542 694 "},"v":{"ha":786,"x_min":0,"x_max":0,"o":"m 7 694 l 238 694 l 322 451 b 390 231 357 350 385 263 b 464 451 399 271 429 361 l 557 694 l 779 694 l 489 0 l 278 0 "},"w":{"ha":1154,"x_min":0,"x_max":0,"o":"m 14 694 l 239 694 l 303 468 b 346 271 319 408 335 340 b 396 468 358 344 365 371 l 467 694 l 686 694 l 751 468 b 799 271 758 444 792 315 b 847 468 807 321 840 443 l 914 694 l 1140 694 l 897 0 l 699 0 l 632 221 b 575 446 597 335 579 417 b 513 217 569 417 557 363 l 446 0 l 238 0 "},"ẃ":{"ha":1154,"x_min":0,"x_max":0,"o":"m 656 779 l 501 779 l 618 1010 l 810 1010 m 14 694 l 239 694 l 303 468 b 346 271 319 408 335 340 b 396 468 358 344 365 371 l 467 694 l 686 694 l 751 468 b 799 271 758 444 792 315 b 847 468 807 321 840 443 l 914 694 l 1140 694 l 897 0 l 699 0 l 632 221 b 575 446 597 335 579 417 b 513 217 569 417 557 363 l 446 0 l 238 0 "},"ŵ":{"ha":1154,"x_min":0,"x_max":0,"o":"m 339 779 l 476 1024 l 682 1024 l 819 779 l 658 779 l 579 925 l 500 779 m 14 694 l 239 694 l 303 468 b 346 271 319 408 335 340 b 396 468 358 344 365 371 l 467 694 l 686 694 l 751 468 b 799 271 758 444 792 315 b 847 468 807 321 840 443 l 914 694 l 1140 694 l 897 0 l 699 0 l 632 221 b 575 446 597 335 579 417 b 513 217 569 417 557 363 l 446 0 l 238 0 "},"ẅ":{"ha":1154,"x_min":0,"x_max":0,"o":"m 442 789 b 335 897 382 789 335 836 b 442 1004 335 956 383 1004 b 549 897 500 1004 549 954 b 442 789 549 838 500 789 m 717 789 b 610 897 657 789 610 836 b 717 1004 610 956 658 1004 b 824 897 775 1004 824 954 b 717 789 824 838 775 789 m 14 694 l 239 694 l 303 468 b 346 271 319 408 335 340 b 396 468 358 344 365 371 l 467 694 l 686 694 l 751 468 b 799 271 758 444 792 315 b 847 468 807 321 840 443 l 914 694 l 1140 694 l 897 0 l 699 0 l 632 221 b 575 446 597 335 579 417 b 513 217 569 417 557 363 l 446 0 l 238 0 "},"ẁ":{"ha":1154,"x_min":0,"x_max":0,"o":"m 501 779 l 347 1010 l 539 1010 l 656 779 m 14 694 l 239 694 l 303 468 b 346 271 319 408 335 340 b 396 468 358 344 365 371 l 467 694 l 686 694 l 751 468 b 799 271 758 444 792 315 b 847 468 807 321 840 443 l 914 694 l 1140 694 l 897 0 l 699 0 l 632 221 b 575 446 597 335 579 417 b 513 217 569 417 557 363 l 446 0 l 238 0 "},"x":{"ha":761,"x_min":0,"x_max":0,"o":"m 14 0 l 247 336 l 14 694 l 261 694 l 389 483 l 508 694 l 747 694 l 518 340 l 739 0 l 493 0 l 374 200 l 257 0 "},"y":{"ha":785,"x_min":0,"x_max":0,"o":"m 25 -154 l 143 -154 b 274 -57 215 -154 246 -132 l 286 -24 l 7 694 l 236 694 l 388 249 l 556 694 l 778 694 l 425 -151 b 167 -353 367 -293 289 -353 b 25 -333 115 -353 67 -346 "},"ý":{"ha":785,"x_min":0,"x_max":0,"o":"m 481 779 l 326 779 l 443 1010 l 635 1010 m 25 -154 l 143 -154 b 274 -57 215 -154 246 -132 l 286 -24 l 7 694 l 236 694 l 388 249 l 556 694 l 778 694 l 425 -151 b 167 -353 367 -293 289 -353 b 25 -333 115 -353 67 -346 "},"ŷ":{"ha":785,"x_min":0,"x_max":0,"o":"m 164 779 l 301 1024 l 507 1024 l 644 779 l 483 779 l 404 925 l 325 779 m 25 -154 l 143 -154 b 274 -57 215 -154 246 -132 l 286 -24 l 7 694 l 236 694 l 388 249 l 556 694 l 778 694 l 425 -151 b 167 -353 367 -293 289 -353 b 25 -333 115 -353 67 -346 "},"ÿ":{"ha":785,"x_min":0,"x_max":0,"o":"m 267 789 b 160 897 207 789 160 836 b 267 1004 160 956 208 1004 b 374 897 325 1004 374 954 b 267 789 374 838 325 789 m 542 789 b 435 897 482 789 435 836 b 542 1004 435 956 483 1004 b 649 897 600 1004 649 954 b 542 789 649 838 600 789 m 25 -154 l 143 -154 b 274 -57 215 -154 246 -132 l 286 -24 l 7 694 l 236 694 l 388 249 l 556 694 l 778 694 l 425 -151 b 167 -353 367 -293 289 -353 b 25 -333 115 -353 67 -346 "},"ỳ":{"ha":785,"x_min":0,"x_max":0,"o":"m 326 779 l 172 1010 l 364 1010 l 481 779 m 25 -154 l 143 -154 b 274 -57 215 -154 246 -132 l 286 -24 l 7 694 l 236 694 l 388 249 l 556 694 l 778 694 l 425 -151 b 167 -353 367 -293 289 -353 b 25 -333 115 -353 67 -346 "},"z":{"ha":682,"x_min":0,"x_max":0,"o":"m 50 0 l 50 178 l 361 517 l 50 517 l 50 694 l 632 694 l 632 517 l 313 178 l 632 178 l 632 0 "},"ź":{"ha":682,"x_min":0,"x_max":0,"o":"m 418 779 l 264 779 l 381 1010 l 572 1010 m 50 0 l 50 178 l 361 517 l 50 517 l 50 694 l 632 694 l 632 517 l 313 178 l 632 178 l 632 0 "},"ž":{"ha":682,"x_min":0,"x_max":0,"o":"m 101 1024 l 263 1024 l 342 878 l 421 1024 l 582 1024 l 444 779 l 239 779 m 50 0 l 50 178 l 361 517 l 50 517 l 50 694 l 632 694 l 632 517 l 313 178 l 632 178 l 632 0 "},"ż":{"ha":682,"x_min":0,"x_max":0,"o":"m 340 789 b 228 903 278 789 228 839 b 340 1017 228 965 279 1017 b 454 903 403 1017 454 964 b 340 789 454 840 403 789 m 50 0 l 50 178 l 361 517 l 50 517 l 50 694 l 632 694 l 632 517 l 313 178 l 632 178 l 632 0 "},"ﬀ":{"ha":975,"x_min":0,"x_max":0,"o":"m 111 694 l 111 750 b 394 1047 111 957 218 1047 b 490 1039 424 1047 457 1044 l 490 856 l 431 856 b 325 750 343 856 325 810 l 325 694 l 581 694 l 581 750 b 864 1047 581 957 688 1047 b 960 1039 893 1047 926 1044 l 960 856 l 900 856 b 794 750 813 856 794 810 l 794 694 l 960 694 l 960 517 l 794 517 l 794 0 l 581 0 l 581 517 l 325 517 l 325 0 l 111 0 l 111 517 l 15 517 l 15 694 "},"ﬃ":{"ha":1347,"x_min":0,"x_max":0,"o":"m 111 694 l 111 750 b 394 1047 111 957 218 1047 b 490 1039 424 1047 457 1044 l 490 856 l 431 856 b 325 750 343 856 325 810 l 325 694 l 581 694 l 581 750 b 850 1047 581 957 688 1047 b 946 1039 879 1047 913 1044 l 946 856 l 886 856 b 794 750 813 856 794 810 l 794 694 l 1265 694 l 1265 0 l 1050 0 l 1050 517 l 794 517 l 794 0 l 581 0 l 581 517 l 325 517 l 325 0 l 111 0 l 111 517 l 15 517 l 15 694 m 1158 803 b 1036 925 1090 803 1036 857 b 1158 1046 1036 993 1090 1046 b 1279 925 1225 1046 1279 993 b 1158 803 1279 857 1225 803 "},"ﬄ":{"ha":1344,"x_min":0,"x_max":0,"o":"m 111 694 l 111 750 b 394 1047 111 957 218 1047 b 490 1039 424 1047 457 1044 l 490 856 l 431 856 b 325 750 343 856 325 810 l 325 694 l 581 694 l 581 750 b 864 1047 581 957 688 1047 b 960 1039 893 1047 926 1044 l 960 856 l 900 856 b 794 750 813 856 794 810 l 794 694 l 1050 694 l 1050 1047 l 1264 1047 l 1264 0 l 1050 0 l 1050 517 l 794 517 l 794 0 l 581 0 l 581 517 l 325 517 l 325 0 l 111 0 l 111 517 l 15 517 l 15 694 "},"ﬁ":{"ha":878,"x_min":0,"x_max":0,"o":"m 581 517 l 325 517 l 325 0 l 111 0 l 111 517 l 15 517 l 15 694 l 111 694 l 111 750 b 381 1047 111 957 218 1047 b 476 1039 410 1047 443 1044 l 476 856 l 417 856 b 325 750 343 856 325 810 l 325 694 l 796 694 l 796 0 l 581 0 m 689 803 b 567 925 621 803 567 857 b 689 1046 567 993 621 1046 b 810 925 756 1046 810 993 b 689 803 810 857 756 803 "},"ﬂ":{"ha":875,"x_min":0,"x_max":0,"o":"m 111 694 l 111 750 b 376 1047 111 957 214 1047 b 472 1039 406 1047 439 1044 l 472 856 l 413 856 b 325 750 339 856 325 810 l 325 694 l 581 694 l 581 1047 l 794 1047 l 794 0 l 581 0 l 581 517 l 325 517 l 325 0 l 111 0 l 111 517 l 15 517 l 15 694 "},"Ω":{"ha":926,"x_min":0,"x_max":0,"o":"m 76 0 l 76 156 l 193 156 b 100 386 138 215 100 292 b 465 717 100 563 242 717 b 828 388 694 717 828 557 b 733 156 828 293 790 215 l 850 156 l 850 0 l 508 0 l 508 156 b 644 364 596 193 644 272 b 464 539 644 469 567 539 b 283 363 361 539 283 469 b 419 156 283 263 338 186 l 419 0 "},"π":{"ha":928,"x_min":0,"x_max":0,"o":"m 139 522 l 18 522 l 18 694 l 892 694 l 892 522 l 761 522 l 761 243 b 831 185 761 203 783 185 l 892 185 l 892 7 b 742 -6 838 -1 781 -6 b 547 197 607 -6 547 57 l 547 522 l 353 522 l 353 0 l 139 0 "},"₀":{"ha":603,"x_min":0,"x_max":0,"o":"m 31 168 b 303 492 31 360 140 492 b 572 168 474 492 572 360 b 301 -150 572 -24 465 -150 b 31 168 131 -150 31 -24 m 169 168 b 303 -26 169 38 218 -26 b 433 168 386 -26 433 38 b 303 367 433 301 386 367 b 169 168 218 367 169 301 "},"₁":{"ha":383,"x_min":0,"x_max":0,"o":"m 28 354 l 28 479 l 325 479 l 325 -139 l 186 -139 l 186 354 "},"₂":{"ha":511,"x_min":0,"x_max":0,"o":"m 42 -139 l 42 -36 l 271 157 b 336 274 317 194 336 226 b 256 367 336 335 308 367 b 168 261 200 367 168 329 l 31 261 b 254 492 36 404 121 492 b 475 282 392 492 475 413 b 368 81 475 201 438 140 l 257 -14 l 481 -14 l 481 -139 "},"₃":{"ha":504,"x_min":0,"x_max":0,"o":"m 317 249 b 474 60 404 231 474 171 b 247 -150 474 -71 372 -150 b 25 65 126 -150 25 -76 l 163 65 b 251 -25 163 6 199 -25 b 336 61 301 -25 336 8 b 236 149 336 108 308 149 l 146 149 l 146 239 l 286 356 l 53 356 l 53 479 l 457 479 l 457 368 "},"₄":{"ha":546,"x_min":0,"x_max":0,"o":"m 460 -31 l 460 -139 l 326 -139 l 326 -31 l 24 -31 l 24 93 l 288 479 l 460 479 l 460 90 l 535 90 l 535 -31 m 326 90 l 326 314 l 178 90 "},"₅":{"ha":511,"x_min":0,"x_max":0,"o":"m 158 65 b 254 -25 158 10 196 -25 b 351 75 315 -25 351 11 b 253 181 351 140 314 181 b 163 131 208 181 181 165 l 35 147 l 114 479 l 451 479 l 451 356 l 222 356 l 199 275 b 281 292 222 286 249 292 b 490 76 403 292 490 201 b 257 -149 490 -58 396 -149 b 21 65 119 -149 21 -60 "},"₆":{"ha":547,"x_min":0,"x_max":0,"o":"m 258 494 l 415 494 l 261 288 b 299 293 274 292 286 293 b 517 83 428 293 517 213 b 275 -150 517 -56 415 -150 b 31 83 133 -150 31 -49 b 132 324 31 161 54 218 m 172 76 b 275 -26 172 17 214 -26 b 376 76 335 -26 376 17 b 275 182 376 136 335 182 b 172 76 214 182 172 136 "},"₇":{"ha":486,"x_min":0,"x_max":0,"o":"m 263 -139 l 126 -139 l 329 356 l 25 356 l 25 479 l 461 479 l 461 356 "},"₈":{"ha":547,"x_min":0,"x_max":0,"o":"m 31 32 b 139 192 31 107 72 169 b 63 319 93 213 63 260 b 275 492 63 419 142 492 b 486 318 406 492 486 422 b 403 190 486 256 453 208 b 517 32 471 172 517 111 b 272 -149 517 -79 425 -149 b 31 32 121 -149 31 -79 m 179 306 b 272 242 179 267 210 242 b 365 306 335 242 365 267 b 272 374 365 343 335 374 b 179 306 208 374 179 343 m 168 50 b 272 -25 168 1 207 -25 b 378 50 340 -25 378 1 b 274 126 378 100 338 126 b 168 50 210 126 168 100 "},"₉":{"ha":547,"x_min":0,"x_max":0,"o":"m 289 -139 l 132 -139 l 286 68 b 249 63 274 64 261 63 b 31 272 119 63 31 143 b 272 506 31 411 132 506 b 517 272 414 506 517 404 b 415 32 517 194 493 138 m 375 279 b 272 382 375 339 333 382 b 171 279 213 382 171 339 b 272 174 171 219 213 174 b 375 279 333 174 375 219 "},"⁰":{"ha":600,"x_min":0,"x_max":0,"o":"m 31 765 b 303 1089 31 957 140 1089 b 572 765 474 1089 572 957 b 301 447 572 574 465 447 b 31 765 131 447 31 574 m 169 765 b 303 571 169 635 218 571 b 433 765 386 571 433 635 b 303 964 433 899 386 964 b 169 765 218 964 169 899 "},"¹":{"ha":383,"x_min":0,"x_max":0,"o":"m 28 951 l 28 1076 l 325 1076 l 325 458 l 186 458 l 186 951 "},"²":{"ha":511,"x_min":0,"x_max":0,"o":"m 42 458 l 42 561 l 271 754 b 336 871 317 792 336 824 b 256 964 336 932 308 964 b 168 858 200 964 168 926 l 31 858 b 254 1089 36 1001 121 1089 b 475 879 392 1089 475 1010 b 368 678 475 799 438 738 l 257 583 l 481 583 l 481 458 "},"³":{"ha":504,"x_min":0,"x_max":0,"o":"m 317 846 b 474 657 404 828 474 768 b 247 447 474 526 372 447 b 25 663 126 447 25 521 l 163 663 b 251 572 163 603 199 572 b 336 658 301 572 336 606 b 236 746 336 706 308 746 l 146 746 l 146 836 l 286 953 l 53 953 l 53 1076 l 457 1076 l 457 965 "},"⁴":{"ha":532,"x_min":0,"x_max":0,"o":"m 460 567 l 460 458 l 326 458 l 326 567 l 24 567 l 24 690 l 288 1076 l 460 1076 l 460 688 l 535 688 l 535 567 m 326 688 l 326 911 l 178 688 "},"⁵":{"ha":511,"x_min":0,"x_max":0,"o":"m 158 663 b 254 572 158 607 196 572 b 351 672 315 572 351 608 b 253 778 351 738 314 778 b 163 728 208 778 181 763 l 35 744 l 114 1076 l 451 1076 l 451 953 l 222 953 l 199 872 b 281 889 222 883 249 889 b 490 674 403 889 490 799 b 257 449 490 539 396 449 b 21 663 119 449 21 538 "},"⁶":{"ha":547,"x_min":0,"x_max":0,"o":"m 258 1092 l 415 1092 l 261 885 b 299 890 274 889 286 890 b 517 681 428 890 517 810 b 275 447 517 542 415 447 b 31 681 133 447 31 549 b 132 921 31 758 54 815 m 172 674 b 275 571 172 614 214 571 b 376 674 335 571 376 614 b 275 779 376 733 335 779 b 172 674 214 779 172 733 "},"⁷":{"ha":486,"x_min":0,"x_max":0,"o":"m 263 458 l 126 458 l 329 953 l 25 953 l 25 1076 l 461 1076 l 461 953 "},"⁸":{"ha":547,"x_min":0,"x_max":0,"o":"m 31 629 b 139 789 31 704 72 767 b 63 917 93 810 63 857 b 275 1089 63 1017 142 1089 b 486 915 406 1089 486 1019 b 403 788 486 853 453 806 b 517 629 471 769 517 708 b 272 449 517 518 425 449 b 31 629 121 449 31 518 m 179 903 b 272 839 179 864 210 839 b 365 903 335 839 365 864 b 272 971 365 940 335 971 b 179 903 208 971 179 940 m 168 647 b 272 572 168 599 207 572 b 378 647 340 572 378 599 b 274 724 378 697 338 724 b 168 647 210 724 168 697 "},"⁹":{"ha":547,"x_min":0,"x_max":0,"o":"m 289 458 l 132 458 l 286 665 b 249 660 274 661 261 660 b 31 869 119 660 31 740 b 272 1103 31 1008 132 1103 b 517 869 414 1103 517 1001 b 415 629 517 792 493 735 m 375 876 b 272 979 375 936 333 979 b 171 876 213 979 171 936 b 272 771 171 817 213 771 b 375 876 333 771 375 817 "},"⁄":{"ha":265,"x_min":0,"x_max":0,"o":"m -118 0 l -285 0 l 383 986 l 550 986 "},"½":{"ha":1122,"x_min":0,"x_max":0,"o":"m 19 919 l 19 1028 l 271 1028 l 271 511 l 153 511 l 153 919 m 281 0 l 114 0 l 782 986 l 949 986 m 711 0 l 711 88 l 882 221 b 954 342 931 260 954 300 b 888 419 954 390 929 419 b 814 342 842 419 814 390 l 694 342 b 889 526 694 450 774 526 b 1074 349 1004 526 1074 458 b 963 150 1074 275 1036 208 l 908 107 l 1092 107 l 1092 0 "},"¼":{"ha":1071,"x_min":0,"x_max":0,"o":"m 19 919 l 19 1028 l 271 1028 l 271 511 l 153 511 l 153 919 m 281 0 l 114 0 l 782 986 l 949 986 m 611 94 l 611 188 l 828 517 l 972 517 l 972 200 l 1040 200 l 1040 94 l 972 94 l 972 0 l 860 0 l 860 94 m 860 200 l 860 378 l 742 200 "},"¾":{"ha":1104,"x_min":0,"x_max":0,"o":"m 144 682 b 215 608 144 633 174 608 b 282 679 256 608 282 636 b 200 750 282 717 260 750 l 125 750 l 125 826 l 233 921 l 49 921 l 49 1028 l 388 1028 l 388 932 l 276 832 b 401 678 346 815 401 767 b 213 501 401 568 317 501 b 25 682 113 501 25 563 m 314 0 l 147 0 l 815 986 l 982 986 m 644 94 l 644 188 l 861 517 l 1006 517 l 1006 200 l 1074 200 l 1074 94 l 1006 94 l 1006 0 l 893 0 l 893 94 m 893 200 l 893 378 l 775 200 "},"⅛":{"ha":1140,"x_min":0,"x_max":0,"o":"m 19 919 l 19 1028 l 271 1028 l 271 511 l 153 511 l 153 919 m 281 0 l 114 0 l 782 986 l 949 986 m 703 143 b 794 275 703 206 739 258 b 729 386 756 293 729 335 b 903 526 729 468 796 526 b 1074 385 1008 526 1074 471 b 1008 275 1074 332 1047 292 b 1101 143 1063 260 1101 208 b 901 -8 1101 51 1024 -8 b 703 143 779 -8 703 51 m 831 369 b 901 318 831 339 856 318 b 971 371 946 318 971 340 b 901 424 971 400 947 424 b 831 369 854 424 831 400 m 822 158 b 901 97 822 119 853 97 b 981 158 950 97 981 119 b 901 221 981 199 949 221 b 822 158 854 221 822 199 "},"⅜":{"ha":1174,"x_min":0,"x_max":0,"o":"m 144 682 b 215 608 144 633 174 608 b 282 679 256 608 282 636 b 200 750 282 717 260 750 l 125 750 l 125 826 l 233 921 l 49 921 l 49 1028 l 388 1028 l 388 932 l 276 832 b 401 678 346 815 401 767 b 213 501 401 568 317 501 b 25 682 113 501 25 563 m 314 0 l 147 0 l 815 986 l 982 986 m 736 143 b 828 275 736 206 772 258 b 763 386 789 293 763 335 b 936 526 763 468 829 526 b 1107 385 1042 526 1107 471 b 1042 275 1107 332 1081 292 b 1135 143 1096 260 1135 208 b 935 -8 1135 51 1057 -8 b 736 143 813 -8 736 51 m 864 369 b 935 318 864 339 889 318 b 1004 371 979 318 1004 340 b 935 424 1004 400 981 424 b 864 369 888 424 864 400 m 856 158 b 935 97 856 119 886 97 b 1014 158 983 97 1014 119 b 935 221 1014 199 982 221 b 856 158 888 221 856 199 "},"⅝":{"ha":1200,"x_min":0,"x_max":0,"o":"m 224 501 b 36 682 124 501 36 563 l 156 682 b 225 608 156 633 183 608 b 303 692 276 608 303 642 b 224 776 303 744 269 776 b 149 735 190 776 160 760 l 38 749 l 106 1028 l 399 1028 l 399 921 l 186 921 l 167 854 b 242 874 186 867 210 874 b 422 692 358 874 422 793 b 224 501 422 578 342 501 m 340 0 l 174 0 l 842 986 l 1008 986 m 763 143 b 854 275 763 206 799 258 b 789 386 815 293 789 335 b 963 526 789 468 856 526 b 1133 385 1068 526 1133 471 b 1068 275 1133 332 1107 292 b 1161 143 1122 260 1161 208 b 961 -8 1161 51 1083 -8 b 763 143 839 -8 763 51 m 890 369 b 961 318 890 339 915 318 b 1031 371 1006 318 1031 340 b 961 424 1031 400 1007 424 b 890 369 914 424 890 400 m 882 158 b 961 97 882 119 913 97 b 1040 158 1010 97 1040 119 b 961 221 1040 199 1008 221 b 882 158 914 221 882 199 "},"⅞":{"ha":1096,"x_min":0,"x_max":0,"o":"m 19 921 l 19 1028 l 390 1028 l 390 921 l 217 511 l 97 511 l 274 921 m 236 0 l 69 0 l 738 986 l 904 986 m 658 143 b 750 275 658 206 694 258 b 685 386 711 293 685 335 b 858 526 685 468 751 526 b 1029 385 964 526 1029 471 b 964 275 1029 332 1003 292 b 1057 143 1018 260 1057 208 b 857 -8 1057 51 979 -8 b 658 143 735 -8 658 51 m 786 369 b 857 318 786 339 811 318 b 926 371 901 318 926 340 b 857 424 926 400 903 424 b 786 369 810 424 786 400 m 778 158 b 857 97 778 119 808 97 b 936 158 906 97 936 119 b 857 221 936 199 904 221 b 778 158 810 221 778 199 "},"*":{"ha":597,"x_min":0,"x_max":0,"o":"m 28 817 l 67 917 l 160 886 b 257 835 206 871 229 856 b 244 944 249 868 244 900 l 244 1047 l 351 1047 l 351 944 b 339 835 351 900 346 865 b 438 886 364 853 390 871 l 532 917 l 569 817 l 471 782 b 363 760 429 767 393 763 b 438 681 393 735 415 715 l 494 593 l 407 533 l 349 615 b 296 713 321 654 307 685 b 247 615 286 675 267 640 l 185 533 l 97 593 l 157 681 b 233 760 182 717 204 736 b 125 782 196 764 168 767 "},"⁂":{"ha":1347,"x_min":0,"x_max":0,"o":"m 403 817 l 442 917 l 535 886 b 632 835 579 868 604 853 b 619 944 626 868 619 900 l 619 1047 l 726 1047 l 726 944 b 714 835 726 900 721 865 b 813 886 739 853 765 871 l 907 917 l 944 817 l 846 782 b 738 760 804 767 768 763 b 813 681 767 736 785 715 l 869 593 l 782 533 l 724 615 b 671 713 696 654 682 685 b 622 615 663 683 647 653 l 560 533 l 472 593 l 532 681 b 608 760 560 715 579 736 b 500 782 578 763 542 767 m 28 267 l 67 367 l 160 336 b 257 285 204 318 229 303 b 244 394 251 318 244 350 l 244 497 l 351 497 l 351 394 b 339 285 351 350 346 315 b 438 336 364 303 392 318 l 532 367 l 569 267 l 471 232 b 363 210 429 217 393 213 b 438 131 392 186 410 165 l 494 43 l 407 -17 l 349 65 b 296 163 319 103 307 135 b 247 65 288 133 272 103 l 185 -17 l 97 43 l 157 131 b 233 210 185 165 204 186 b 125 232 203 213 167 217 m 778 267 l 817 367 l 910 336 b 1007 285 954 318 979 303 b 994 394 1001 318 994 350 l 994 497 l 1101 497 l 1101 394 b 1089 285 1101 350 1096 315 b 1188 336 1114 303 1142 318 l 1282 367 l 1319 267 l 1221 232 b 1113 210 1179 217 1143 213 b 1188 131 1142 186 1160 165 l 1244 43 l 1157 -17 l 1099 65 b 1046 163 1069 103 1057 135 b 997 65 1038 133 1022 103 l 935 -17 l 847 43 l 907 131 b 983 210 935 165 954 186 b 875 232 953 213 917 217 "},"\\":{"ha":614,"x_min":0,"x_max":0,"o":"m 614 0 l 401 0 l 0 1025 l 214 1025 "},"·":{"ha":511,"x_min":0,"x_max":0,"o":"m 257 240 b 89 404 165 240 89 315 b 257 571 89 496 165 571 b 422 404 346 571 422 493 b 257 240 422 317 347 240 "},"•":{"ha":651,"x_min":0,"x_max":0,"o":"m 328 146 b 89 379 199 146 89 251 b 328 617 89 508 199 617 b 563 379 457 617 563 506 b 328 146 563 251 453 146 "},":":{"ha":456,"x_min":0,"x_max":0,"o":"m 228 471 b 100 596 157 471 100 528 b 228 722 100 665 157 722 b 356 596 296 722 356 665 b 228 471 356 528 296 471 m 228 -18 b 100 107 157 -18 100 39 b 228 233 100 176 157 233 b 356 107 296 233 356 176 b 228 -18 356 39 296 -18 "},",":{"ha":428,"x_min":0,"x_max":0,"o":"m 342 71 b 118 -179 342 -62 249 -165 l 118 -103 b 242 4 188 -90 238 -53 b 201 -4 231 -1 217 -4 b 86 106 136 -4 86 44 b 206 233 86 182 133 233 b 342 71 286 233 342 167 "},"…":{"ha":1178,"x_min":0,"x_max":0,"o":"m 214 -18 b 86 107 143 -18 86 39 b 214 233 86 176 143 233 b 342 107 282 233 342 176 b 214 -18 342 39 282 -18 m 589 -18 b 461 107 518 -18 461 39 b 589 233 461 176 518 233 b 717 107 657 233 717 176 b 589 -18 717 39 657 -18 m 964 -18 b 836 107 893 -18 836 39 b 964 233 836 176 893 233 b 1092 107 1032 233 1092 176 b 964 -18 1092 39 1032 -18 "},"!":{"ha":486,"x_min":0,"x_max":0,"o":"m 153 307 b 114 796 129 426 114 614 l 114 1028 l 372 1028 l 372 796 b 329 307 372 608 354 421 m 242 -18 b 114 107 171 -18 114 39 b 242 233 114 176 171 233 b 369 107 310 233 369 176 b 242 -18 369 39 310 -18 "},"¡":{"ha":486,"x_min":0,"x_max":0,"o":"m 242 1046 b 369 921 310 1046 369 989 b 242 794 369 851 310 794 b 114 921 171 794 114 851 b 242 1046 114 989 171 1046 m 329 721 b 372 232 354 607 372 419 l 372 0 l 114 0 l 114 232 b 153 721 114 414 129 601 "},"#":{"ha":1036,"x_min":0,"x_max":0,"o":"m 217 444 l 243 582 l 101 582 l 143 782 l 282 782 l 331 1028 l 543 1028 l 494 782 l 632 782 l 679 1028 l 892 1028 l 844 782 l 985 782 l 943 582 l 806 582 l 778 444 l 939 444 l 899 244 l 739 244 l 692 0 l 479 0 l 526 244 l 389 244 l 342 0 l 129 0 l 176 244 l 51 244 l 93 444 m 565 444 l 593 582 l 456 582 l 429 444 "},".":{"ha":428,"x_min":0,"x_max":0,"o":"m 214 -18 b 86 107 143 -18 86 39 b 214 233 86 176 143 233 b 342 107 282 233 342 176 b 214 -18 342 39 282 -18 "},"?":{"ha":801,"x_min":0,"x_max":0,"o":"m 269 279 l 269 308 b 421 567 269 443 350 510 b 528 722 478 613 528 654 b 404 847 528 801 483 847 b 267 689 319 847 267 786 l 43 689 b 410 1047 43 901 193 1047 b 758 738 628 1047 758 932 b 581 461 758 586 660 515 b 463 308 517 418 463 376 l 463 279 m 372 -18 b 244 107 301 -18 244 39 b 372 233 244 176 301 233 b 500 107 442 233 500 175 b 372 -18 500 40 442 -18 "},"¿":{"ha":801,"x_min":0,"x_max":0,"o":"m 429 1047 b 557 922 500 1047 557 990 b 429 796 557 853 500 796 b 301 922 360 796 301 854 b 429 1047 301 989 360 1047 m 532 750 l 532 721 b 381 463 532 586 451 519 b 274 307 324 417 274 375 b 397 182 274 228 318 182 b 535 340 482 182 535 243 l 758 340 b 392 -18 758 128 608 -18 b 43 292 174 -18 43 97 b 221 568 43 443 142 514 b 339 721 285 611 339 653 l 339 750 "},"\"":{"ha":703,"x_min":0,"x_max":0,"o":"m 253 589 l 146 589 l 94 904 b 204 1038 79 999 143 1038 b 303 904 254 1038 318 999 m 558 589 l 451 589 l 400 904 b 510 1038 385 999 449 1038 b 608 904 560 1038 624 999 "},"'":{"ha":397,"x_min":0,"x_max":0,"o":"m 253 589 l 146 589 l 94 904 b 204 1038 79 999 143 1038 b 303 904 254 1038 318 999 "},";":{"ha":456,"x_min":0,"x_max":0,"o":"m 228 471 b 100 596 157 471 100 528 b 228 722 100 665 157 722 b 356 596 296 722 356 665 b 228 471 356 528 296 471 m 356 71 b 132 -179 356 -62 263 -165 l 132 -103 b 256 4 201 -90 251 -53 b 215 -4 244 -1 231 -4 b 100 106 150 -4 100 44 b 219 233 100 182 147 233 b 356 71 300 233 356 167 "},"/":{"ha":614,"x_min":0,"x_max":0,"o":"m 0 0 l 400 1025 l 614 1025 l 213 0 "},"_":{"ha":779,"x_min":0,"x_max":0,"o":"m 83 -22 l 696 -22 l 696 -174 l 83 -174 "},"{":{"ha":533,"x_min":0,"x_max":0,"o":"m 63 608 b 217 750 160 608 217 656 l 217 1018 b 419 1208 217 1135 300 1208 l 526 1208 l 526 1044 l 467 1044 b 411 976 433 1044 411 1024 l 411 721 b 272 525 411 613 363 554 b 411 329 363 496 411 438 l 411 74 b 467 6 411 26 433 6 l 526 6 l 526 -158 l 419 -158 b 217 32 300 -158 217 -85 l 217 300 b 63 442 217 394 160 442 "},"}":{"ha":533,"x_min":0,"x_max":0,"o":"m 7 -158 l 7 6 l 67 6 b 122 74 100 6 122 26 l 122 329 b 261 525 122 438 171 496 b 122 721 171 554 122 613 l 122 976 b 67 1044 122 1024 100 1044 l 7 1044 l 7 1208 l 114 1208 b 317 1018 233 1208 317 1135 l 317 750 b 471 608 317 656 374 608 l 471 442 b 317 300 374 442 317 394 l 317 32 b 114 -158 317 -85 233 -158 "},"[":{"ha":468,"x_min":0,"x_max":0,"o":"m 461 6 l 461 -158 l 107 -158 l 107 1208 l 461 1208 l 461 1044 l 301 1044 l 301 6 "},"]":{"ha":468,"x_min":0,"x_max":0,"o":"m 7 6 l 167 6 l 167 1044 l 7 1044 l 7 1208 l 361 1208 l 361 -158 l 7 -158 "},"(":{"ha":474,"x_min":0,"x_max":0,"o":"m 310 -294 b 56 403 157 -136 56 118 b 310 1100 56 654 138 921 l 474 1100 b 272 403 353 938 272 683 b 474 -294 272 156 336 -110 "},")":{"ha":474,"x_min":0,"x_max":0,"o":"m 0 -294 b 201 403 138 -110 201 156 b 0 1100 201 683 121 938 l 164 1100 b 418 403 336 921 418 654 b 164 -294 418 118 317 -136 "},"—":{"ha":1744,"x_min":0,"x_max":0,"o":"m 97 467 l 1647 467 l 1647 278 l 97 278 "},"–":{"ha":1400,"x_min":0,"x_max":0,"o":"m 97 467 l 1303 467 l 1303 278 l 97 278 "},"-":{"ha":642,"x_min":0,"x_max":0,"o":"m 83 469 l 558 469 l 558 281 l 83 281 "},"«":{"ha":1111,"x_min":0,"x_max":0,"o":"m 56 347 l 360 694 l 639 694 l 335 347 l 639 0 l 360 0 m 472 347 l 776 694 l 1056 694 l 751 347 l 1056 0 l 776 0 "},"»":{"ha":1111,"x_min":0,"x_max":0,"o":"m 56 0 l 360 347 l 56 694 l 335 694 l 639 347 l 335 0 m 472 0 l 776 347 l 472 694 l 751 694 l 1056 347 l 751 0 "},"‹":{"ha":694,"x_min":0,"x_max":0,"o":"m 56 347 l 360 694 l 639 694 l 335 347 l 639 0 l 360 0 "},"›":{"ha":694,"x_min":0,"x_max":0,"o":"m 56 0 l 360 347 l 56 694 l 335 694 l 639 347 l 335 0 "},"„":{"ha":726,"x_min":0,"x_max":0,"o":"m 332 57 b 118 -193 332 -79 246 -179 l 118 -117 b 232 -10 186 -104 232 -67 b 192 -18 221 -15 207 -18 b 89 92 133 -18 89 24 b 206 210 89 161 136 210 b 332 57 282 210 332 149 m 638 57 b 424 -193 638 -79 551 -179 l 424 -117 b 538 -10 492 -104 538 -67 b 497 -18 526 -15 513 -18 b 394 92 439 -18 394 24 b 511 210 394 161 442 210 b 638 57 588 210 638 149 "},"“":{"ha":726,"x_min":0,"x_max":0,"o":"m 332 763 b 215 644 332 693 285 644 b 89 797 139 644 89 706 b 303 1047 89 933 175 1033 l 303 971 b 189 864 235 958 189 921 b 229 872 200 869 214 872 b 332 763 288 872 332 831 m 638 763 b 521 644 638 693 590 644 b 394 797 444 644 394 706 b 608 1047 394 933 481 1033 l 608 971 b 494 864 540 958 494 921 b 535 872 506 869 519 872 b 638 763 593 872 638 831 "},"”":{"ha":726,"x_min":0,"x_max":0,"o":"m 332 894 b 118 644 332 758 246 658 l 118 721 b 232 828 186 733 232 771 b 192 819 221 822 207 819 b 89 929 133 819 89 861 b 206 1047 89 999 136 1047 b 332 894 282 1047 332 986 m 638 894 b 424 644 638 758 551 658 l 424 721 b 538 828 492 733 538 771 b 497 819 526 822 513 819 b 394 929 439 819 394 861 b 511 1047 394 999 442 1047 b 638 894 588 1047 638 986 "},"‘":{"ha":421,"x_min":0,"x_max":0,"o":"m 332 763 b 215 644 332 693 285 644 b 89 797 139 644 89 706 b 303 1047 89 933 175 1033 l 303 971 b 189 864 235 958 189 921 b 229 872 200 869 214 872 b 332 763 288 872 332 831 "},"’":{"ha":421,"x_min":0,"x_max":0,"o":"m 332 894 b 118 644 332 758 246 658 l 118 721 b 232 828 186 733 232 771 b 192 819 221 822 207 819 b 89 929 133 819 89 861 b 206 1047 89 999 136 1047 b 332 894 282 1047 332 986 "},"‚":{"ha":421,"x_min":0,"x_max":0,"o":"m 332 57 b 118 -193 332 -79 246 -179 l 118 -117 b 232 -10 186 -104 232 -67 b 192 -18 221 -15 207 -18 b 89 92 133 -18 89 24 b 206 210 89 161 136 210 b 332 57 282 210 332 149 "}," ":{"ha":368,"x_min":0,"x_max":0,"o":""},"¢":{"ha":818,"x_min":0,"x_max":0,"o":"m 318 157 b 57 514 157 194 57 328 b 318 869 57 694 161 831 l 318 1028 l 497 1028 l 497 874 b 768 586 656 847 756 742 l 553 586 b 421 689 538 656 494 689 b 272 514 331 689 272 621 b 418 338 272 403 326 338 b 553 440 493 338 539 372 l 768 440 b 497 153 756 290 650 181 l 497 -1 l 318 -1 "},"¤":{"ha":1061,"x_min":0,"x_max":0,"o":"m 731 181 b 532 125 672 146 604 125 b 331 181 458 125 390 146 l 221 72 l 83 213 l 193 321 b 142 514 161 378 142 443 b 193 710 142 585 161 651 l 83 818 l 221 958 l 331 850 b 532 906 390 885 458 906 b 731 850 604 906 672 885 l 840 958 l 978 818 l 869 711 b 922 514 903 653 922 586 b 869 319 922 443 903 376 l 978 213 l 840 72 m 726 514 b 532 710 726 622 639 710 b 338 514 422 710 338 622 b 532 321 338 408 424 321 b 726 514 638 321 726 408 "},"$":{"ha":846,"x_min":0,"x_max":0,"o":"m 365 -17 b 35 299 163 0 35 119 l 258 299 b 365 179 258 232 296 192 l 365 419 l 328 426 b 50 729 142 464 50 565 b 365 1043 50 897 178 1021 l 365 1158 l 493 1158 l 493 1043 b 788 731 675 1021 788 906 l 571 731 b 493 844 571 788 543 826 l 493 599 l 533 590 b 804 310 722 551 804 467 b 493 -12 804 135 683 14 l 493 -129 l 365 -129 m 269 738 b 365 625 269 678 297 643 l 365 847 b 269 738 304 833 269 794 m 586 288 b 493 393 586 347 554 381 l 493 185 b 586 288 551 201 586 238 "},"€":{"ha":826,"x_min":0,"x_max":0,"o":"m 604 -17 b 119 313 364 -17 186 103 l 17 313 l 17 468 l 92 468 b 90 511 90 482 90 496 b 92 550 90 525 90 538 l 17 550 l 17 706 l 118 706 b 625 1047 186 922 372 1047 b 763 1031 669 1047 718 1042 l 763 818 b 638 836 722 829 671 836 b 353 706 497 836 403 796 l 657 706 l 657 550 l 314 550 b 313 514 313 539 313 526 b 314 468 313 499 313 483 l 657 468 l 657 313 l 358 313 b 617 193 407 231 494 193 b 776 218 667 193 719 201 l 776 1 b 604 -17 710 -11 663 -17 "},"ƒ":{"ha":926,"x_min":0,"x_max":0,"o":"m 357 568 l 379 747 b 719 1046 401 929 524 1046 l 856 1046 l 856 840 l 708 840 b 608 733 653 840 618 811 l 588 568 l 842 568 l 842 368 l 564 368 l 514 -39 b 181 -299 494 -201 404 -299 l 71 -299 l 71 -93 l 185 -93 b 288 -4 239 -93 281 -64 l 333 368 l 101 368 l 101 568 "},"£":{"ha":938,"x_min":0,"x_max":0,"o":"m 33 0 l 33 210 b 179 365 121 210 179 268 b 169 435 179 388 175 411 l 39 435 l 39 597 l 117 597 b 101 699 108 631 101 665 b 476 1047 101 893 253 1047 b 838 713 683 1047 838 919 l 614 713 b 468 847 613 807 553 847 b 318 703 381 847 318 789 b 336 597 318 667 325 632 l 629 597 l 629 435 l 386 435 b 393 375 390 415 393 394 b 306 210 393 306 371 243 l 521 210 b 671 354 639 210 668 269 l 888 354 b 558 0 888 136 765 0 "},"¥":{"ha":967,"x_min":0,"x_max":0,"o":"m 28 1028 l 283 1028 l 482 643 l 683 1028 l 939 1028 l 654 542 l 808 542 l 808 386 l 588 386 l 588 319 l 808 319 l 808 164 l 588 164 l 588 0 l 375 0 l 375 164 l 154 164 l 154 319 l 375 319 l 375 386 l 154 386 l 154 542 l 311 542 "},"+":{"ha":917,"x_min":0,"x_max":0,"o":"m 369 557 l 369 815 l 547 815 l 547 557 l 806 557 l 806 379 l 547 379 l 547 119 l 369 119 l 369 379 l 111 379 l 111 557 "},"−":{"ha":917,"x_min":0,"x_max":0,"o":"m 806 557 l 806 379 l 111 379 l 111 557 "},"×":{"ha":917,"x_min":0,"x_max":0,"o":"m 460 594 l 671 806 l 797 681 l 585 468 l 797 256 l 671 131 l 460 343 l 246 129 l 119 254 l 333 468 l 121 681 l 247 806 "},"÷":{"ha":917,"x_min":0,"x_max":0,"o":"m 460 572 b 343 685 396 572 343 624 b 460 799 343 747 396 799 b 574 685 519 799 574 747 b 460 572 574 624 519 572 m 806 514 l 806 336 l 111 336 l 111 514 m 460 50 b 343 164 396 50 343 103 b 460 278 343 226 396 278 b 574 164 519 278 574 226 b 460 50 574 103 519 50 "},"=":{"ha":917,"x_min":0,"x_max":0,"o":"m 806 664 l 806 486 l 111 486 l 111 664 m 806 358 l 806 181 l 111 181 l 111 358 "},"≠":{"ha":917,"x_min":0,"x_max":0,"o":"m 226 181 l 111 181 l 111 358 l 324 358 l 393 486 l 111 486 l 111 664 l 490 664 l 575 819 l 775 819 l 690 664 l 806 664 l 806 486 l 593 486 l 524 358 l 806 358 l 806 181 l 426 181 l 342 25 l 142 25 "},">":{"ha":917,"x_min":0,"x_max":0,"o":"m 111 -6 l 111 203 l 601 350 l 111 497 l 111 706 l 806 464 l 806 236 "},"<":{"ha":917,"x_min":0,"x_max":0,"o":"m 806 -6 l 111 236 l 111 464 l 806 706 l 806 497 l 315 350 l 806 203 "},"≥":{"ha":917,"x_min":0,"x_max":0,"o":"m 111 178 l 111 386 l 601 519 l 111 653 l 111 861 l 806 633 l 806 406 m 806 178 l 806 0 l 111 0 l 111 178 "},"≤":{"ha":917,"x_min":0,"x_max":0,"o":"m 806 178 l 111 406 l 111 633 l 806 861 l 806 653 l 315 519 l 806 386 m 111 178 l 806 178 l 806 0 l 111 0 "},"±":{"ha":917,"x_min":0,"x_max":0,"o":"m 369 654 l 369 857 l 547 857 l 547 654 l 806 654 l 806 476 l 547 476 l 547 272 l 369 272 l 369 476 l 111 476 l 111 654 m 111 178 l 806 178 l 806 0 l 111 0 "},"≈":{"ha":917,"x_min":0,"x_max":0,"o":"m 806 704 b 600 447 806 560 726 447 b 335 540 471 447 408 540 b 272 458 283 540 272 499 l 111 458 b 317 710 111 597 190 710 b 582 617 444 710 504 617 b 644 704 633 617 644 656 m 806 413 b 600 156 806 268 726 156 b 335 249 471 156 408 249 b 272 167 283 249 272 207 l 111 167 b 317 418 111 306 190 418 b 582 325 444 418 504 325 b 644 413 633 325 644 364 "},"~":{"ha":917,"x_min":0,"x_max":0,"o":"m 806 565 b 600 308 806 421 726 308 b 335 401 471 308 408 401 b 272 319 283 401 272 360 l 111 319 b 317 571 111 458 190 571 b 582 478 444 571 504 478 b 644 565 633 478 644 517 "},"¬":{"ha":917,"x_min":0,"x_max":0,"o":"m 804 132 l 603 132 l 603 378 l 75 378 l 75 558 l 804 558 "},"∅":{"ha":1210,"x_min":0,"x_max":0,"o":"m 599 -17 b 267 114 469 -17 354 32 l 153 11 l 56 117 l 176 226 b 99 515 126 308 99 408 b 600 1046 99 817 314 1046 b 936 915 732 1046 849 997 l 1058 1025 l 1154 919 l 1026 803 b 1101 515 1074 721 1101 622 b 599 -17 1101 217 881 -17 m 307 515 b 333 368 307 461 315 411 l 788 781 b 600 847 739 824 675 847 b 307 515 425 847 307 713 m 599 182 b 893 515 775 182 893 321 b 868 660 893 568 885 618 l 414 249 b 599 182 463 206 525 182 "},"∞":{"ha":1282,"x_min":0,"x_max":0,"o":"m 56 404 b 358 708 56 581 182 708 b 642 550 478 708 556 665 b 924 708 726 665 804 708 b 1226 404 1100 708 1226 581 b 924 101 1226 229 1100 101 b 642 258 804 101 726 144 b 358 101 556 144 478 101 b 56 404 183 101 56 229 m 247 404 b 358 285 247 333 292 285 b 517 404 432 285 490 328 b 358 524 490 482 433 524 b 247 404 292 524 247 476 m 765 404 b 924 285 792 328 850 285 b 1035 404 990 285 1035 333 b 924 524 1035 475 990 524 b 765 404 849 524 792 482 "},"∫":{"ha":678,"x_min":0,"x_max":0,"o":"m 42 -17 l 42 178 l 147 178 b 231 282 203 178 231 204 l 231 747 b 514 1046 231 929 346 1046 l 636 1046 l 636 851 l 531 851 b 447 747 475 851 447 825 l 447 282 b 164 -17 447 100 332 -17 "},"∆":{"ha":1003,"x_min":0,"x_max":0,"o":"m 69 0 l 69 189 l 403 1028 l 600 1028 l 933 189 l 933 0 m 294 189 l 711 189 l 522 658 b 501 724 514 681 506 706 b 479 660 496 701 481 663 "},"∏":{"ha":1006,"x_min":0,"x_max":0,"o":"m 107 0 l 107 1028 l 899 1028 l 899 0 l 674 0 l 674 819 l 332 819 l 332 0 "},"∑":{"ha":829,"x_min":0,"x_max":0,"o":"m 69 0 l 69 225 l 356 521 l 69 804 l 69 1028 l 760 1028 l 760 819 l 332 819 l 624 521 l 326 208 l 760 208 l 760 0 "},"√":{"ha":1049,"x_min":0,"x_max":0,"o":"m 0 693 l 222 693 l 378 278 l 661 1029 l 1021 1029 l 1021 835 l 807 835 l 481 0 l 272 0 "},"µ":{"ha":836,"x_min":0,"x_max":0,"o":"m 72 -333 l 72 694 l 286 694 l 286 336 b 413 172 286 222 325 172 b 542 333 504 172 542 219 l 542 694 l 756 694 l 756 0 l 554 0 l 540 78 b 376 -18 497 21 456 -18 b 260 46 321 -18 285 8 l 288 -333 "},"∂":{"ha":915,"x_min":0,"x_max":0,"o":"m 64 364 b 428 743 64 606 232 743 b 592 700 476 743 544 735 b 339 1028 551 790 474 914 l 613 1028 b 851 436 788 839 851 617 b 447 -18 851 115 651 -18 b 64 364 244 -18 64 113 m 279 363 b 457 172 279 251 353 172 b 633 363 560 172 633 251 b 457 553 633 474 560 553 b 279 363 351 553 279 474 "},"%":{"ha":1374,"x_min":0,"x_max":0,"o":"m 592 768 b 314 489 592 604 476 489 b 36 768 151 489 36 604 b 314 1047 36 932 151 1047 b 592 768 476 1047 592 932 m 400 0 l 190 0 l 971 1025 l 1181 1025 m 425 768 b 314 886 425 838 381 886 b 203 768 247 886 203 838 b 314 650 203 699 247 650 b 425 768 381 650 425 699 m 1338 261 b 1060 -18 1338 97 1222 -18 b 782 261 897 -18 782 97 b 1060 540 782 425 897 540 b 1338 261 1222 540 1338 425 m 1171 261 b 1060 379 1171 331 1126 379 b 949 261 993 379 949 331 b 1060 143 949 192 993 143 b 1171 261 1126 143 1171 192 "},"‰":{"ha":1985,"x_min":0,"x_max":0,"o":"m 592 768 b 314 489 592 604 476 489 b 36 768 151 489 36 604 b 314 1047 36 932 151 1047 b 592 768 476 1047 592 932 m 400 0 l 190 0 l 971 1025 l 1181 1025 m 425 768 b 314 886 425 838 381 886 b 203 768 247 886 203 838 b 314 650 203 699 247 650 b 425 768 381 650 425 699 m 1338 261 b 1060 -18 1338 97 1222 -18 b 782 261 897 -18 782 97 b 1060 540 782 425 897 540 b 1338 261 1222 540 1338 425 m 1949 261 b 1671 -18 1949 97 1833 -18 b 1393 261 1508 -18 1393 97 b 1671 540 1393 425 1508 540 b 1949 261 1833 540 1949 425 m 1171 261 b 1060 379 1171 331 1126 379 b 949 261 993 379 949 331 b 1060 143 949 192 993 143 b 1171 261 1126 143 1171 192 m 1782 261 b 1671 379 1782 331 1738 379 b 1560 261 1604 379 1560 331 b 1671 143 1560 192 1604 143 b 1782 261 1738 143 1782 192 "},"↑":{"ha":1217,"x_min":0,"x_max":0,"o":"m 83 683 l 608 1208 l 1133 683 l 1021 571 l 688 904 l 688 0 l 529 0 l 529 904 l 196 571 "},"↗":{"ha":1196,"x_min":0,"x_max":0,"o":"m 369 1028 l 1113 1028 l 1113 286 l 953 286 l 953 757 l 196 0 l 83 111 l 840 869 l 369 869 "},"→":{"ha":1404,"x_min":0,"x_max":0,"o":"m 796 954 l 1321 429 l 796 -94 l 683 18 l 1017 351 l 83 351 l 83 508 l 1017 510 l 683 843 "},"↘":{"ha":1193,"x_min":0,"x_max":0,"o":"m 1110 743 l 1110 0 l 368 1 l 368 161 l 839 161 l 83 917 l 194 1028 l 951 272 l 951 744 "},"↓":{"ha":1215,"x_min":0,"x_max":0,"o":"m 1132 353 l 607 -172 l 83 353 l 197 467 l 529 133 l 529 1065 l 688 1065 l 688 132 l 1022 467 "},"↙":{"ha":1197,"x_min":0,"x_max":0,"o":"m 826 0 l 83 0 l 85 742 l 244 742 l 244 271 l 1003 1031 l 1114 919 l 356 158 l 828 158 "},"←":{"ha":1406,"x_min":0,"x_max":0,"o":"m 610 -106 l 83 418 l 610 944 l 722 833 l 389 499 l 1322 499 l 1322 340 l 389 340 l 722 8 "},"↖":{"ha":1160,"x_min":0,"x_max":0,"o":"m 825 1026 l 825 867 l 354 867 l 1076 111 l 965 0 l 242 756 l 242 283 l 83 285 l 83 1028 "},"↔":{"ha":1631,"x_min":0,"x_max":0,"o":"m 514 821 l 514 596 l 381 471 l 706 472 l 706 474 l 942 474 l 942 472 l 1250 472 l 1117 596 l 1117 821 l 1547 394 l 1117 -36 l 1117 188 l 1253 314 l 378 314 l 514 188 l 514 -36 l 83 394 "},"↕":{"ha":1024,"x_min":0,"x_max":0,"o":"m 83 161 l 308 161 l 433 28 l 432 353 l 431 353 l 431 589 l 432 589 l 432 897 l 308 764 l 83 764 l 510 1194 l 940 764 l 717 764 l 590 900 l 590 25 l 717 161 l 940 161 l 510 -269 "},"●":{"ha":1242,"x_min":0,"x_max":0,"o":"m 621 -75 b 83 463 324 -75 83 167 b 621 1000 83 760 325 1000 b 1158 463 915 1000 1158 758 b 621 -75 1158 165 917 -75 "},"○":{"ha":1242,"x_min":0,"x_max":0,"o":"m 621 -75 b 83 463 324 -75 83 167 b 621 1000 83 760 325 1000 b 1158 463 915 1000 1158 758 b 621 -75 1158 165 917 -75 m 621 64 b 1019 463 840 64 1019 243 b 621 861 1019 681 839 861 b 222 463 401 861 222 682 b 621 64 222 243 401 64 "},"◊":{"ha":922,"x_min":0,"x_max":0,"o":"m 563 0 l 360 0 l 83 493 l 360 986 l 563 986 l 839 493 m 461 797 l 299 493 l 461 189 l 624 493 "},"■":{"ha":1153,"x_min":0,"x_max":0,"o":"m 83 986 l 1069 986 l 1069 0 l 83 0 "},"□":{"ha":1153,"x_min":0,"x_max":0,"o":"m 83 986 l 1069 986 l 1069 0 l 83 0 m 239 831 l 239 156 l 914 156 l 914 831 "},"▲":{"ha":1342,"x_min":0,"x_max":0,"o":"m 671 986 l 1258 0 l 83 0 "},"△":{"ha":1342,"x_min":0,"x_max":0,"o":"m 1258 6 l 83 6 l 672 992 m 1019 138 l 671 721 l 322 138 "},"☮":{"ha":1242,"x_min":0,"x_max":0,"o":"m 621 -75 b 83 463 324 -75 83 167 b 621 1000 83 760 325 1000 b 1158 463 915 1000 1158 758 b 621 -75 1158 165 917 -75 m 222 463 b 253 311 222 410 233 358 l 558 526 l 558 856 b 222 463 368 826 222 661 m 1019 463 b 683 856 1019 660 872 825 l 683 526 l 989 311 b 1019 463 1008 358 1019 410 m 318 204 b 558 69 378 133 463 83 l 558 374 l 318 204 m 683 69 b 924 204 779 83 864 133 l 683 374 "},"✓":{"ha":950,"x_min":0,"x_max":0,"o":"m 56 335 l 175 461 l 351 274 l 763 769 l 894 656 l 357 10 "},"@":{"ha":1343,"x_min":0,"x_max":0,"o":"m 369 317 b 603 515 369 428 447 503 l 779 529 l 779 539 b 672 633 779 601 742 633 b 546 546 590 633 546 603 l 385 546 b 682 781 385 688 501 781 b 968 499 865 781 968 679 l 968 315 b 1029 240 968 264 988 240 b 1138 481 1093 240 1138 338 b 679 919 1138 738 947 919 b 206 439 404 919 206 717 b 679 -43 206 160 406 -43 b 951 43 771 -43 865 -12 l 1008 -75 b 679 -171 911 -137 797 -171 b 69 439 328 -171 69 88 b 679 1047 69 789 329 1047 b 1274 481 1022 1047 1274 807 b 997 115 1274 254 1168 115 b 811 228 901 115 836 154 b 600 115 789 164 697 115 b 369 317 456 115 369 190 m 567 325 b 654 258 567 279 594 258 b 781 367 733 258 781 299 l 781 400 l 682 392 b 567 325 594 385 567 365 "},"&":{"ha":1069,"x_min":0,"x_max":0,"o":"m 746 64 b 447 -18 665 11 564 -18 b 64 279 221 -18 64 104 b 289 569 64 400 146 504 b 190 796 217 653 190 715 b 471 1046 190 939 310 1046 b 743 804 631 1046 743 946 b 567 535 743 700 689 617 l 728 356 b 747 504 740 399 747 449 l 957 504 b 874 194 957 382 928 278 l 1050 0 l 803 0 m 392 797 b 464 649 392 747 414 707 b 546 796 518 682 546 733 b 471 878 546 847 518 878 b 392 797 422 878 392 847 m 292 303 b 476 167 292 218 363 167 b 619 204 532 167 579 179 l 392 457 b 292 303 325 418 292 367 "},"¶":{"ha":864,"x_min":0,"x_max":0,"o":"m 35 747 b 304 1028 35 918 139 1028 l 532 1028 l 532 -136 l 351 -136 l 351 465 l 304 465 b 35 747 138 465 35 574 m 665 -139 l 665 1025 l 729 1025 l 729 -139 "},"§":{"ha":686,"x_min":0,"x_max":0,"o":"m 647 535 b 531 346 647 454 600 385 b 621 196 594 314 621 267 b 331 -18 621 72 497 -18 b 57 217 169 -18 57 76 l 260 217 b 340 138 260 169 289 138 b 422 200 392 138 422 163 b 344 265 422 232 393 254 l 215 296 b 39 493 88 326 39 396 b 156 682 39 575 86 644 b 65 833 92 715 65 763 b 356 1047 65 957 189 1047 b 629 813 517 1047 629 953 l 426 813 b 346 892 426 860 397 892 b 264 829 294 892 264 867 b 342 764 264 796 293 776 l 471 732 b 647 535 599 700 647 632 m 449 514 b 343 613 449 568 415 613 b 238 514 271 613 238 568 b 343 417 238 460 271 417 b 449 514 415 417 449 460 "},"©":{"ha":1143,"x_min":0,"x_max":0,"o":"m 572 -18 b 56 515 283 -18 56 218 b 572 1047 56 813 283 1047 b 1088 515 860 1047 1088 811 b 572 -18 1088 218 860 -18 m 572 107 b 957 515 789 107 957 285 b 572 922 957 746 790 922 b 186 515 354 922 186 744 b 572 107 186 285 354 107 m 308 515 b 571 786 308 672 418 786 b 833 568 722 786 824 703 l 675 568 b 576 644 663 621 631 644 b 467 515 511 644 467 593 b 575 385 467 433 508 385 b 675 461 631 385 664 410 l 833 461 b 575 243 824 332 718 243 b 308 515 413 243 308 351 "},"®":{"ha":725,"x_min":0,"x_max":0,"o":"m 364 435 b 56 740 189 435 56 567 b 364 1046 56 913 190 1046 b 669 740 539 1046 669 915 b 364 435 669 565 539 435 m 364 493 b 607 740 504 493 607 597 b 364 988 607 883 504 988 b 118 740 222 988 118 882 b 364 493 118 597 222 493 m 236 572 l 236 918 l 381 918 b 510 814 458 918 510 879 b 440 711 510 768 483 729 l 514 572 l 446 572 l 383 694 l 299 694 l 299 572 m 443 807 b 379 858 443 842 421 858 l 299 858 l 299 751 l 379 751 b 443 807 419 751 443 774 "},"℗":{"ha":725,"x_min":0,"x_max":0,"o":"m 364 435 b 56 740 189 435 56 567 b 364 1046 56 913 190 1046 b 669 740 539 1046 669 915 b 364 435 669 565 539 435 m 364 493 b 607 740 504 493 607 597 b 364 988 607 883 504 988 b 118 740 222 988 118 882 b 364 493 118 597 222 493 m 251 567 l 251 910 l 392 910 b 525 793 471 910 525 863 b 392 664 525 714 474 664 l 314 664 l 314 567 m 314 724 l 392 724 b 458 789 435 724 458 747 b 392 850 458 829 435 850 l 314 850 "},"™":{"ha":914,"x_min":0,"x_max":0,"o":"m 36 956 l 36 1028 l 375 1028 l 375 956 l 244 956 l 244 631 l 167 631 l 167 956 m 421 631 l 421 1028 l 493 1028 l 626 707 l 758 1028 l 831 1028 l 831 631 l 758 631 l 758 874 l 657 631 l 594 631 l 493 871 l 493 631 "},"°":{"ha":475,"x_min":0,"x_max":0,"o":"m 433 851 b 238 656 433 739 350 656 b 42 851 125 656 42 739 b 238 1047 42 964 125 1047 b 433 851 350 1047 433 964 m 319 851 b 238 939 319 904 286 939 b 156 851 188 939 156 903 b 238 765 156 800 188 765 b 319 851 286 765 319 799 "},"|":{"ha":489,"x_min":0,"x_max":0,"o":"m 163 1094 l 326 1094 l 326 -125 l 163 -125 "},"¦":{"ha":489,"x_min":0,"x_max":0,"o":"m 326 617 l 163 617 l 163 1094 l 326 1094 m 163 353 l 326 353 l 326 -125 l 163 -125 "},"†":{"ha":494,"x_min":0,"x_max":0,"o":"m 185 769 l 28 769 l 28 889 l 185 889 l 185 1028 l 310 1028 l 310 889 l 467 889 l 467 769 l 310 769 l 310 408 l 185 408 "},"‡":{"ha":499,"x_min":0,"x_max":0,"o":"m 185 547 l 32 547 l 32 667 l 185 667 l 185 769 l 28 769 l 28 889 l 185 889 l 185 1028 l 310 1028 l 310 889 l 467 889 l 467 769 l 310 769 l 310 667 l 471 667 l 471 547 l 310 547 l 310 408 l 185 408 "},"℮":{"ha":1082,"x_min":0,"x_max":0,"o":"m 83 490 b 542 986 83 783 275 986 b 999 529 810 986 999 815 b 997 456 999 503 999 476 l 222 456 l 222 206 b 558 43 294 103 411 43 b 889 228 701 43 831 118 l 942 208 b 556 -12 874 72 729 -12 b 83 490 272 -12 83 192 m 222 506 l 860 506 l 860 783 b 542 931 790 878 674 931 b 222 758 403 931 290 861 "},"№":{"ha":1822,"x_min":0,"x_max":0,"o":"m 1760 718 b 1421 394 1760 531 1617 394 b 1079 718 1228 394 1079 536 b 1421 1047 1079 907 1225 1047 b 1760 718 1615 1047 1760 907 m 107 0 l 107 1028 l 329 1028 l 763 374 l 763 1028 l 985 1028 l 985 0 l 763 0 l 329 653 l 329 0 m 1563 717 b 1421 857 1563 803 1507 857 b 1276 717 1333 857 1276 803 b 1421 581 1276 640 1339 581 b 1563 717 1501 581 1563 639 m 1107 154 l 1107 338 l 1732 338 l 1732 154 "},"^":{"ha":744,"x_min":0,"x_max":0,"o":"m 83 556 l 268 1028 l 476 1028 l 661 556 l 481 556 l 372 858 l 264 556 "},"′":{"ha":275,"x_min":0,"x_max":0,"o":"m 183 674 l 89 674 l 56 946 b 136 1047 47 1015 92 1047 b 217 946 181 1047 225 1015 "},"̈":{"ha":633,"x_min":0,"x_max":0,"o":"m 179 1081 b 72 1189 119 1081 72 1128 b 179 1296 72 1247 121 1296 b 286 1189 238 1296 286 1246 b 179 1081 286 1129 238 1081 m 454 1081 b 347 1189 394 1081 347 1128 b 454 1296 347 1247 396 1296 b 561 1189 513 1296 561 1246 b 454 1081 561 1129 513 1081 "},"̇":{"ha":338,"x_min":0,"x_max":0,"o":"m 168 1081 b 56 1194 106 1081 56 1131 b 168 1308 56 1257 107 1308 b 282 1194 231 1308 282 1256 b 168 1081 282 1132 231 1081 "},"̀":{"ha":433,"x_min":0,"x_max":0,"o":"m 224 1071 l 69 1301 l 261 1301 l 378 1071 "},"́":{"ha":433,"x_min":0,"x_max":0,"o":"m 210 1071 l 56 1071 l 172 1301 l 364 1301 "},"̋":{"ha":697,"x_min":0,"x_max":0,"o":"m 203 1071 l 56 1071 l 186 1301 l 357 1301 m 447 1071 l 300 1071 l 431 1301 l 601 1301 "},"̂":{"ha":592,"x_min":0,"x_max":0,"o":"m 56 1071 l 193 1315 l 399 1315 l 536 1071 l 375 1071 l 296 1217 l 217 1071 "},"̌":{"ha":592,"x_min":0,"x_max":0,"o":"m 56 1315 l 217 1315 l 296 1169 l 375 1315 l 536 1315 l 399 1071 l 193 1071 "},"̆":{"ha":650,"x_min":0,"x_max":0,"o":"m 571 1304 b 326 1057 571 1153 475 1057 b 79 1304 174 1057 79 1151 l 231 1304 b 326 1196 231 1235 265 1196 b 421 1304 386 1196 421 1236 "},"̊":{"ha":494,"x_min":0,"x_max":0,"o":"m 247 1046 b 51 1239 133 1046 51 1126 b 247 1433 51 1349 136 1433 b 443 1239 358 1433 443 1349 b 247 1046 443 1129 360 1046 m 247 1154 b 329 1242 297 1154 329 1189 b 247 1325 329 1290 296 1325 b 165 1242 199 1325 165 1292 b 247 1154 165 1189 197 1154 "},"̃":{"ha":649,"x_min":0,"x_max":0,"o":"m 61 1074 b 206 1299 44 1210 104 1299 b 419 1213 307 1299 360 1213 b 469 1299 456 1213 469 1249 l 589 1299 b 443 1074 604 1146 542 1074 b 229 1160 338 1074 282 1160 b 181 1075 193 1160 181 1128 "},"̄":{"ha":569,"x_min":0,"x_max":0,"o":"m 83 1251 l 486 1251 l 486 1107 l 83 1107 "},"̒":{"ha":318,"x_min":0,"x_max":0,"o":"m 263 1193 b 161 1099 263 1136 222 1099 b 56 1221 97 1099 56 1147 b 251 1390 56 1325 119 1408 l 251 1325 b 139 1272 178 1335 142 1315 b 178 1282 149 1279 163 1282 b 263 1193 229 1282 263 1243 "},"̦":{"ha":318,"x_min":0,"x_max":0,"o":"m 263 -162 b 67 -332 263 -267 199 -350 l 67 -267 b 179 -214 140 -276 176 -257 b 140 -224 169 -221 156 -224 b 56 -135 89 -224 56 -185 b 157 -40 56 -78 96 -40 b 263 -162 221 -40 263 -89 "},"̧":{"ha":386,"x_min":0,"x_max":0,"o":"m 42 -207 b 143 -233 76 -222 104 -233 b 221 -176 197 -233 221 -210 b 160 -128 221 -146 199 -128 b 92 -139 132 -128 111 -132 l 72 -85 l 142 60 l 201 58 l 201 13 l 160 -67 b 210 -58 174 -61 190 -58 b 331 -176 265 -58 331 -90 b 154 -322 331 -271 253 -322 b 42 -296 106 -322 72 -311 "},"̸":{"ha":811,"x_min":0,"x_max":0,"o":"m 247 -61 l 56 -61 l 574 767 l 756 767 "},"´":{"ha":433,"x_min":0,"x_max":0,"o":"m 210 1071 l 56 1071 l 172 1301 l 364 1301 "},"˘":{"ha":650,"x_min":0,"x_max":0,"o":"m 571 1304 b 326 1057 571 1153 475 1057 b 79 1304 174 1057 79 1151 l 231 1304 b 326 1196 231 1235 265 1196 b 421 1304 386 1196 421 1236 "},"ˇ":{"ha":592,"x_min":0,"x_max":0,"o":"m 56 1315 l 217 1315 l 296 1169 l 375 1315 l 536 1315 l 399 1071 l 193 1071 "},"¸":{"ha":386,"x_min":0,"x_max":0,"o":"m 42 -207 b 143 -233 76 -222 104 -233 b 221 -176 197 -233 221 -210 b 160 -128 221 -146 199 -128 b 92 -139 132 -128 111 -132 l 72 -85 l 142 60 l 201 58 l 201 13 l 160 -67 b 210 -58 174 -61 190 -58 b 331 -176 265 -58 331 -90 b 154 -322 331 -271 253 -322 b 42 -296 106 -322 72 -311 "},"ˆ":{"ha":592,"x_min":0,"x_max":0,"o":"m 56 1071 l 193 1315 l 399 1315 l 536 1071 l 375 1071 l 296 1217 l 217 1071 "},"¨":{"ha":633,"x_min":0,"x_max":0,"o":"m 179 1081 b 72 1189 119 1081 72 1128 b 179 1296 72 1247 121 1296 b 286 1189 238 1296 286 1246 b 179 1081 286 1129 238 1081 m 454 1081 b 347 1189 394 1081 347 1128 b 454 1296 347 1247 396 1296 b 561 1189 513 1296 561 1246 b 454 1081 561 1129 513 1081 "},"˙":{"ha":338,"x_min":0,"x_max":0,"o":"m 168 1081 b 56 1194 106 1081 56 1131 b 168 1308 56 1257 107 1308 b 282 1194 231 1308 282 1256 b 168 1081 282 1132 231 1081 "},"`":{"ha":433,"x_min":0,"x_max":0,"o":"m 224 1071 l 69 1301 l 261 1301 l 378 1071 "},"˝":{"ha":697,"x_min":0,"x_max":0,"o":"m 203 1071 l 56 1071 l 186 1301 l 357 1301 m 447 1071 l 300 1071 l 431 1301 l 601 1301 "},"¯":{"ha":569,"x_min":0,"x_max":0,"o":"m 83 1251 l 486 1251 l 486 1107 l 83 1107 "},"˛":{"ha":363,"x_min":0,"x_max":0,"o":"m 314 0 b 203 -112 236 -26 203 -74 b 261 -168 203 -143 225 -168 b 304 -158 274 -168 289 -165 l 304 -294 b 222 -310 279 -306 253 -310 b 63 -161 124 -310 63 -242 b 188 0 63 -97 101 -32 "},"˚":{"ha":494,"x_min":0,"x_max":0,"o":"m 247 1046 b 51 1239 133 1046 51 1126 b 247 1433 51 1349 136 1433 b 443 1239 358 1433 443 1349 b 247 1046 443 1129 360 1046 m 247 1154 b 329 1242 297 1154 329 1189 b 247 1325 329 1290 296 1325 b 165 1242 199 1325 165 1292 b 247 1154 165 1189 197 1154 "},"˜":{"ha":649,"x_min":0,"x_max":0,"o":"m 61 1074 b 206 1299 44 1210 104 1299 b 419 1213 307 1299 360 1213 b 469 1299 456 1213 469 1249 l 589 1299 b 443 1074 604 1146 542 1074 b 229 1160 338 1074 282 1160 b 181 1075 193 1160 181 1128 "},"":{"ha":2415,"x_min":0,"x_max":0,"o":"m 83 972 l 383 972 l 383 0 l 83 0 m 446 972 l 746 972 l 746 689 l 446 689 m 807 972 l 1108 972 l 1108 0 l 807 0 m 1169 972 l 1469 972 l 1469 689 l 1169 689 m 1531 972 l 1832 972 l 1832 0 l 1531 0 m 1893 972 l 2193 972 l 2193 689 l 1893 689 m 1893 628 l 2193 628 l 2193 343 l 1893 343 "},"ı":{"ha":375,"x_min":0,"x_max":0,"o":"m 81 694 l 294 694 l 294 0 l 81 0 "},"ȷ":{"ha":375,"x_min":0,"x_max":0,"o":"m -40 -150 b 13 -158 -19 -157 -8 -158 b 81 -68 65 -158 81 -129 l 81 694 l 294 694 l 294 -96 b 33 -356 294 -251 200 -356 b -75 -339 3 -356 -25 -354 "},"̵":{"ha":889,"x_min":0,"x_max":0,"o":"m 522 925 l 522 801 l 3 801 l 3 925 "},"̷":{"ha":401,"x_min":0,"x_max":0,"o":"m 28 556 l 381 724 l 381 575 l 28 407 "}}}
